  0
SECTION
  2
HEADER
  9
$ACADVER
  1
AC1014
  9
$ACADMAINTVER
 70
     9
  9
$DWGCODEPAGE
  3
ANSI_1252
  9
$INSBASE
 10
0.0
 20
0.0
 30
0.0
  9
$EXTMIN
 10
0.0
 20
0.0
 30
0.0
  9
$EXTMAX
 10
0.0
 20
0.0
 30
0.0
  9
$LIMMIN
 10
0.0
 20
0.0
  9
$LIMMAX
 10
0.0
 20
0.0
  9
$ORTHOMODE
 70
     0
  9
$REGENMODE
 70
     1
  9
$FILLMODE
 70
     1
  9
$QTEXTMODE
 70
     0
  9
$MIRRTEXT
 70
     1
  9
$DRAGMODE
 70
     2
  9
$LTSCALE
 40
1.0
  9
$OSMODE
 70
    37
  9
$ATTMODE
 70
     1
  9
$TEXTSIZE
 40
2.5
  9
$TRACEWID
 40
1.0
  9
$TEXTSTYLE
  7
STANDARD
  9
$CLAYER
  8
0
  9
$CELTYPE
  6
BYLAYER
  9
$CECOLOR
 62
   256
  9
$CELTSCALE
 40
1.0
  9
$DELOBJ
 70
     1
  9
$DISPSILH
 70
     0
  9
$DIMSCALE
 40
1.0
  9
$DIMASZ
 40
2.5
  9
$DIMEXO
 40
0.625
  9
$DIMDLI
 40
3.75
  9
$DIMRND
 40
0.0
  9
$DIMDLE
 40
0.0
  9
$DIMEXE
 40
1.25
  9
$DIMTP
 40
0.0
  9
$DIMTM
 40
0.0
  9
$DIMTXT
 40
2.5
  9
$DIMCEN
 40
2.5
  9
$DIMTSZ
 40
0.0
  9
$DIMTOL
 70
     0
  9
$DIMLIM
 70
     0
  9
$DIMTIH
 70
     0
  9
$DIMTOH
 70
     0
  9
$DIMSE1
 70
     0
  9
$DIMSE2
 70
     0
  9
$DIMTAD
 70
     1
  9
$DIMZIN
 70
     8
  9
$DIMBLK
  1

  9
$DIMASO
 70
     1
  9
$DIMSHO
 70
     1
  9
$DIMPOST
  1

  9
$DIMAPOST
  1

  9
$DIMALT
 70
     0
  9
$DIMALTD
 70
     3
  9
$DIMALTF
 40
0.0393700787
  9
$DIMLFAC
 40
1.0
  9
$DIMTOFL
 70
     1
  9
$DIMTVP
 40
0.0
  9
$DIMTIX
 70
     0
  9
$DIMSOXD
 70
     0
  9
$DIMSAH
 70
     0
  9
$DIMBLK1
  1

  9
$DIMBLK2
  1

  9
$DIMSTYLE
  2
ISO-25
  9
$DIMCLRD
 70
     0
  9
$DIMCLRE
 70
     0
  9
$DIMCLRT
 70
     0
  9
$DIMTFAC
 40
1.0
  9
$DIMGAP
 40
0.625
  9
$DIMJUST
 70
     0
  9
$DIMSD1
 70
     0
  9
$DIMSD2
 70
     0
  9
$DIMTOLJ
 70
     0
  9
$DIMTZIN
 70
     8
  9
$DIMALTZ
 70
     0
  9
$DIMALTTZ
 70
     0
  9
$DIMFIT
 70
     3
  9
$DIMUPT
 70
     0
  9
$DIMUNIT
 70
     2
  9
$DIMDEC
 70
     2
  9
$DIMTDEC
 70
     2
  9
$DIMALTU
 70
     2
  9
$DIMALTTD
 70
     3
  9
$DIMTXSTY
  7
STANDARD
  9
$DIMAUNIT
 70
     0
  9
$LUNITS
 70
     2
  9
$LUPREC
 70
     4
  9
$SKETCHINC
 40
1.0
  9
$FILLETRAD
 40
0.0
  9
$AUNITS
 70
     0
  9
$AUPREC
 70
     0
  9
$MENU
  1
.
  9
$ELEVATION
 40
0.0
  9
$PELEVATION
 40
0.0
  9
$THICKNESS
 40
0.0
  9
$LIMCHECK
 70
     0
  9
$CHAMFERA
 40
0.0
  9
$CHAMFERB
 40
0.0
  9
$CHAMFERC
 40
0.0
  9
$CHAMFERD
 40
0.0
  9
$SKPOLY
 70
     0
  9
$TDCREATE
 40
2460957.630417442
  9
$TDUPDATE
 40
2460957.630435915
  9
$TDINDWG
 40
0.0000000116
  9
$TDUSRTIMER
 40
0.0000000116
  9
$USRTIMER
 70
     1
  9
$ANGBASE
 50
0.0
  9
$ANGDIR
 70
     0
  9
$PDMODE
 70
     0
  9
$PDSIZE
 40
0.0
  9
$PLINEWID
 40
0.0
  9
$COORDS
 70
     1
  9
$SPLFRAME
 70
     0
  9
$SPLINETYPE
 70
     6
  9
$SPLINESEGS
 70
     8
  9
$ATTDIA
 70
     0
  9
$ATTREQ
 70
     1
  9
$HANDLING
 70
     1
  9
$HANDSEED
  5
1C8
  9
$SURFTAB1
 70
     6
  9
$SURFTAB2
 70
     6
  9
$SURFTYPE
 70
     6
  9
$SURFU
 70
     6
  9
$SURFV
 70
     6
  9
$UCSNAME
  2

  9
$UCSORG
 10
0.0
 20
0.0
 30
0.0
  9
$UCSXDIR
 10
1.0
 20
0.0
 30
0.0
  9
$UCSYDIR
 10
0.0
 20
1.0
 30
0.0
  9
$PUCSNAME
  2

  9
$PUCSORG
 10
0.0
 20
0.0
 30
0.0
  9
$PUCSXDIR
 10
1.0
 20
0.0
 30
0.0
  9
$PUCSYDIR
 10
0.0
 20
1.0
 30
0.0
  9
$USERI1
 70
     0
  9
$USERI2
 70
     0
  9
$USERI3
 70
     0
  9
$USERI4
 70
     0
  9
$USERI5
 70
     0
  9
$USERR1
 40
0.0
  9
$USERR2
 40
0.0
  9
$USERR3
 40
0.0
  9
$USERR4
 40
0.0
  9
$USERR5
 40
0.0
  9
$WORLDVIEW
 70
     1
  9
$SHADEDGE
 70
     3
  9
$SHADEDIF
 70
    70
  9
$TILEMODE
 70
     1
  9
$MAXACTVP
 70
    64
  9
$PINSBASE
 10
0.0
 20
0.0
 30
0.0
  9
$PLIMCHECK
 70
     0
  9
$PEXTMIN
 10
0.0
 20
0.0
 30
0.0
  9
$PEXTMAX
 10
0.0
 20
0.0
 30
0.0
  9
$PLIMMIN
 10
0.0
 20
0.0
  9
$PLIMMAX
 10
0.0
 20
0.0
  9
$UNITMODE
 70
     0
  9
$VISRETAIN
 70
     1
  9
$PLINEGEN
 70
     0
  9
$PSLTSCALE
 70
     1
  9
$TREEDEPTH
 70
  3020
  9
$PICKSTYLE
 70
     1
  9
$CMLSTYLE
  2
STANDARD
  9
$CMLJUST
 70
     0
  9
$CMLSCALE
 40
20.0
  9
$PROXYGRAPHICS
 70
     1
  9
$MEASUREMENT
 70
     1
  0
ENDSEC
  0
SECTION
  2
CLASSES
  0
CLASS
  1
ACDBDICTIONARYWDFLT
  2
AcDbDictionaryWithDefault
  3
ObjectDBX Classes
 90
        0
280
     0
281
     0
  0
CLASS
  1
VISUALSTYLE
  2
AcDbVisualStyle
  3
ObjectDBX Classes
 90
     4095
280
     0
281
     0
  0
CLASS
  1
MATERIAL
  2
AcDbMaterial
  3
ObjectDBX Classes
 90
     1153
280
     0
281
     0
  0
CLASS
  1
SCALE
  2
AcDbScale
  3
ObjectDBX Classes
 90
     1153
280
     0
281
     0
  0
CLASS
  1
TABLESTYLE
  2
AcDbTableStyle
  3
ObjectDBX Classes
 90
     4095
280
     0
281
     0
  0
CLASS
  1
MLEADERSTYLE
  2
AcDbMLeaderStyle
  3
ACDB_MLEADERSTYLE_CLASS
 90
     4095
280
     0
281
     0
  0
CLASS
  1
SUN
  2
AcDbSun
  3
SCENEOE
 90
     1153
280
     0
281
     0
  0
CLASS
  1
DICTIONARYVAR
  2
AcDbDictionaryVar
  3
ObjectDBX Classes
 90
        0
280
     0
281
     0
  0
CLASS
  1
XRECORD
  2
AcDbXrecord
  3
ObjectDBX Classes
 90
        0
280
     0
281
     0
  0
CLASS
  1
LWPOLYLINE
  2
AcDbPolyline
  3
ObjectDBX Classes
 90
        0
280
     0
281
     1
  0
CLASS
  1
HATCH
  2
AcDbHatch
  3
ObjectDBX Classes
 90
        0
280
     0
281
     1
  0
CLASS
  1
ACDBPLACEHOLDER
  2
AcDbPlaceHolder
  3
ObjectDBX Classes
 90
        0
280
     0
281
     0
  0
CLASS
  1
LAYOUT
  2
AcDbLayout
  3
ObjectDBX Classes
 90
        0
280
     0
281
     0
  0
ENDSEC
  0
SECTION
  2
TABLES
  0
TABLE
  2
VPORT
  5
8
102
{ACAD_XDICTIONARY
360
1BD
102
}
330
0
100
AcDbSymbolTable
 70
     1
  0
VPORT
  5
29
330
8
100
AcDbSymbolTableRecord
100
AcDbViewportTableRecord
  2
*ACTIVE
 70
     0
 10
0.0
 20
0.0
 11
1.0
 21
1.0
 12
344.1869158879
 22
148.5
 13
0.0
 23
0.0
 14
10.0
 24
10.0
 15
10.0
 25
10.0
 16
0.0
 26
0.0
 36
1.0
 17
0.0
 27
0.0
 37
0.0
 40
297.0
 41
1.9729729729
 42
50.0
 43
0.0
 44
0.0
 50
0.0
 51
0.0
 71
     0
 72
   100
 73
     1
 74
     3
 75
     0
 76
     0
 77
     0
 78
     0
  0
ENDTAB
  0
TABLE
  2
LTYPE
  5
5
330
0
100
AcDbSymbolTable
 70
     2
  0
LTYPE
  5
14
330
5
100
AcDbSymbolTableRecord
100
AcDbLinetypeTableRecord
  2
BYBLOCK
 70
     0
  3

 72
    65
 73
     0
 40
0.0
  0
LTYPE
  5
15
330
5
100
AcDbSymbolTableRecord
100
AcDbLinetypeTableRecord
  2
BYLAYER
 70
     0
  3

 72
    65
 73
     0
 40
0.0
  0
LTYPE
  5
16
330
5
100
AcDbSymbolTableRecord
100
AcDbLinetypeTableRecord
  2
CONTINUOUS
 70
     0
  3
Solid line
 72
    65
 73
     0
 40
0.0
  0
LTYPE
  5
62
330
5
100
AcDbSymbolTableRecord
100
AcDbLinetypeTableRecord
  2
HIDDEN2
 70
     0
  3
Hidden (.5x) _ _ _ _ _ _ _ _ _ _ _ _ _ _ _ _ _ 
 72
    65
 73
     2
 40
4.7625
 49
3.175
 74
     4
 75
     0
340
0
 46
0.0
 50
0.0
 44
0.0
 45
0.0
 49
-1.5875
 74
     4
 75
     0
340
0
 46
0.0
 50
0.0
 44
0.0
 45
0.0
  0
ENDTAB
  0
TABLE
  2
LAYER
  5
2
330
0
100
AcDbSymbolTable
 70
     5
  0
LAYER
  5
10
330
2
100
AcDbSymbolTableRecord
100
AcDbLayerTableRecord
  2
0
 70
     0
 62
     7
  6
CONTINUOUS
  0
LAYER
  5
5E
330
2
100
AcDbSymbolTableRecord
100
AcDbLayerTableRecord
  2
DOWN_FEATURES
 70
     0
 62
     7
  6
CONTINUOUS
  0
LAYER
  5
61
330
2
100
AcDbSymbolTableRecord
100
AcDbLayerTableRecord
  2
OUTER_LOOP
 70
     0
 62
     7
  6
CONTINUOUS
  0
LAYER
  5
8D
330
2
100
AcDbSymbolTableRecord
100
AcDbLayerTableRecord
  2
OTHER
 70
     0
 62
     7
  6
CONTINUOUS
  0
LAYER
  5
A9
330
2
100
AcDbSymbolTableRecord
100
AcDbLayerTableRecord
  2
UP_FEATURES
 70
     0
 62
     7
  6
CONTINUOUS
  0
ENDTAB
  0
TABLE
  2
STYLE
  5
3
330
0
100
AcDbSymbolTable
 70
     1
  0
STYLE
  5
11
330
3
100
AcDbSymbolTableRecord
100
AcDbTextStyleTableRecord
  2
STANDARD
 70
     0
 40
0.0
 41
1.0
 50
0.0
 71
     0
 42
2.5
  3
txt
  4

  0
ENDTAB
  0
TABLE
  2
VIEW
  5
6
330
0
100
AcDbSymbolTable
 70
     0
  0
ENDTAB
  0
TABLE
  2
UCS
  5
7
330
0
100
AcDbSymbolTable
 70
     0
  0
ENDTAB
  0
TABLE
  2
APPID
  5
9
330
0
100
AcDbSymbolTable
 70
     2
  0
APPID
  5
12
330
9
100
AcDbSymbolTableRecord
100
AcDbRegAppTableRecord
  2
ACAD
 70
     0
  0
APPID
  5
1C7
330
9
100
AcDbSymbolTableRecord
100
AcDbRegAppTableRecord
  2
ACAD_MLEADERVER
 70
     0
  0
ENDTAB
  0
TABLE
  2
DIMSTYLE
  5
A
330
0
100
AcDbSymbolTable
 70
     1
  0
DIMSTYLE
105
27
330
A
100
AcDbSymbolTableRecord
100
AcDbDimStyleTableRecord
  2
ISO-25
 70
     0
  3

  4

  5

  6

  7

 40
1.0
 41
2.5
 42
0.625
 43
3.75
 44
1.25
 45
0.0
 46
0.0
 47
0.0
 48
0.0
140
2.5
141
2.5
142
0.0
143
0.0393700787
144
1.0
145
0.0
146
1.0
147
0.625
 71
     0
 72
     0
 73
     0
 74
     0
 75
     0
 76
     0
 77
     1
 78
     8
170
     0
171
     3
172
     1
173
     0
174
     0
175
     0
176
     0
177
     0
178
     0
270
     2
271
     2
272
     2
273
     2
274
     3
340
11
275
     0
280
     0
281
     0
282
     0
283
     0
284
     8
285
     0
286
     0
287
     3
288
     0
  0
ENDTAB
  0
TABLE
  2
BLOCK_RECORD
  5
1
330
0
100
AcDbSymbolTable
 70
     0
  0
BLOCK_RECORD
  5
1F
330
1
100
AcDbSymbolTableRecord
100
AcDbBlockTableRecord
  2
*MODEL_SPACE
  0
BLOCK_RECORD
  5
1B
330
1
100
AcDbSymbolTableRecord
100
AcDbBlockTableRecord
  2
*PAPER_SPACE
  0
ENDTAB
  0
ENDSEC
  0
SECTION
  2
BLOCKS
  0
BLOCK
  5
20
330
1F
100
AcDbEntity
  8
0
100
AcDbBlockBegin
  2
*MODEL_SPACE
 70
     0
 10
0.0
 20
0.0
 30
0.0
  3
*MODEL_SPACE
  1

  0
ENDBLK
  5
21
330
1F
100
AcDbEntity
  8
0
100
AcDbBlockEnd
  0
BLOCK
  5
1C
330
1B
100
AcDbEntity
 67
     1
  8
0
100
AcDbBlockBegin
  2
*PAPER_SPACE
 70
     0
 10
0.0
 20
0.0
 30
0.0
  3
*PAPER_SPACE
  1

  0
ENDBLK
  5
1D
330
1B
100
AcDbEntity
 67
     1
  8
0
100
AcDbBlockEnd
  0
ENDSEC
  0
SECTION
  2
ENTITIES
  0
LINE
  5
5F
330
1F
100
AcDbEntity
  8
DOWN_FEATURES
  6
CONTINUOUS
 62
     2
100
AcDbLine
 10
101.9827991283
 20
-3.0
 30
0.0
 11
101.9827991283
 21
-11.16
 31
0.0
  0
LINE
  5
60
330
1F
100
AcDbEntity
  8
DOWN_FEATURES
  6
CONTINUOUS
 62
     2
100
AcDbLine
 10
101.9827991283
 20
-13.16
 30
0.0
 11
101.9827991283
 21
-28.17
 31
0.0
  0
LINE
  5
63
330
1F
100
AcDbEntity
  8
OUTER_LOOP
  6
HIDDEN2
 62
     3
100
AcDbLine
 10
-1.5172008717
 20
28.26
 30
0.0
 11
-1.5172008717
 21
-1.6
 31
0.0
  0
LINE
  5
64
330
1F
100
AcDbEntity
  8
DOWN_FEATURES
  6
HIDDEN2
 62
     2
100
AcDbLine
 10
-1.5172008717
 20
-1.6
 30
0.0
 11
-1.5172008717
 21
-11.76
 31
0.0
  0
LINE
  5
65
330
1F
100
AcDbEntity
  8
DOWN_FEATURES
  6
HIDDEN2
 62
     2
100
AcDbLine
 10
-1.5172008717
 20
-11.76
 30
0.0
 11
-1.5172008717
 21
-28.77
 31
0.0
  0
LINE
  5
66
330
1F
100
AcDbEntity
  8
DOWN_FEATURES
  6
HIDDEN2
 62
     2
100
AcDbLine
 10
-1.5172008717
 20
55.43
 30
0.0
 11
-1.5172008717
 21
38.42
 31
0.0
  0
LINE
  5
67
330
1F
100
AcDbEntity
  8
DOWN_FEATURES
  6
HIDDEN2
 62
     2
100
AcDbLine
 10
-1.5172008717
 20
38.42
 30
0.0
 11
-1.5172008717
 21
28.26
 31
0.0
  0
LINE
  5
68
330
1F
100
AcDbEntity
  8
DOWN_FEATURES
  6
HIDDEN2
 62
     2
100
AcDbLine
 10
100.5827991283
 20
38.42
 30
0.0
 11
90.2862734074
 21
38.42
 31
0.0
  0
LINE
  5
69
330
1F
100
AcDbEntity
  8
OUTER_LOOP
  6
HIDDEN2
 62
     3
100
AcDbLine
 10
0.0
 20
28.26
 30
0.0
 11
-1.5172008717
 21
28.26
 31
0.0
  0
LINE
  5
6A
330
1F
100
AcDbEntity
  8
OUTER_LOOP
  6
HIDDEN2
 62
     3
100
AcDbLine
 10
100.5827991283
 20
-1.6
 30
0.0
 11
98.9827991283
 21
-1.6
 31
0.0
  0
LINE
  5
6B
330
1F
100
AcDbEntity
  8
DOWN_FEATURES
  6
HIDDEN2
 62
     2
100
AcDbLine
 10
100.5827991283
 20
-11.76
 30
0.0
 11
87.9209959363
 21
-11.76
 31
0.0
  0
LINE
  5
6C
330
1F
100
AcDbEntity
  8
DOWN_FEATURES
  6
HIDDEN2
 62
     2
100
AcDbLine
 10
100.5827991283
 20
-28.77
 30
0.0
 11
-1.5172008717
 21
-28.77
 31
0.0
  0
LINE
  5
6D
330
1F
100
AcDbEntity
  8
DOWN_FEATURES
  6
HIDDEN2
 62
     2
100
AcDbLine
 10
100.5827991283
 20
55.43
 30
0.0
 11
-1.5172008717
 21
55.43
 31
0.0
  0
LINE
  5
6E
330
1F
100
AcDbEntity
  8
DOWN_FEATURES
  6
HIDDEN2
 62
     2
100
AcDbLine
 10
100.5827991283
 20
28.26
 30
0.0
 11
100.5827991283
 21
38.42
 31
0.0
  0
LINE
  5
6F
330
1F
100
AcDbEntity
  8
DOWN_FEATURES
  6
HIDDEN2
 62
     2
100
AcDbLine
 10
100.5827991283
 20
38.42
 30
0.0
 11
100.5827991283
 21
55.43
 31
0.0
  0
LINE
  5
70
330
1F
100
AcDbEntity
  8
DOWN_FEATURES
  6
HIDDEN2
 62
     2
100
AcDbLine
 10
100.5827991283
 20
-28.77
 30
0.0
 11
100.5827991283
 21
-11.76
 31
0.0
  0
LINE
  5
71
330
1F
100
AcDbEntity
  8
DOWN_FEATURES
  6
HIDDEN2
 62
     2
100
AcDbLine
 10
100.5827991283
 20
-11.76
 30
0.0
 11
100.5827991283
 21
-1.6
 31
0.0
  0
LINE
  5
72
330
1F
100
AcDbEntity
  8
OUTER_LOOP
  6
HIDDEN2
 62
     3
100
AcDbLine
 10
100.5827991283
 20
-1.6
 30
0.0
 11
100.5827991283
 21
28.26
 31
0.0
  0
LINE
  5
73
330
1F
100
AcDbEntity
  8
DOWN_FEATURES
  6
HIDDEN2
 62
     2
100
AcDbLine
 10
100.5827991283
 20
8.98
 30
0.0
 11
101.9827991283
 21
8.98
 31
0.0
  0
LINE
  5
74
330
1F
100
AcDbEntity
  8
DOWN_FEATURES
  6
HIDDEN2
 62
     2
100
AcDbLine
 10
100.5827991283
 20
17.68
 30
0.0
 11
101.9827991283
 21
17.68
 31
0.0
  0
LINE
  5
75
330
1F
100
AcDbEntity
  8
DOWN_FEATURES
  6
HIDDEN2
 62
     2
100
AcDbLine
 10
-2.9172008717
 20
8.98
 30
0.0
 11
-1.5172008717
 21
8.98
 31
0.0
  0
LINE
  5
76
330
1F
100
AcDbEntity
  8
DOWN_FEATURES
  6
HIDDEN2
 62
     2
100
AcDbLine
 10
-2.9172008717
 20
17.68
 30
0.0
 11
-1.5172008717
 21
17.68
 31
0.0
  0
LINE
  5
77
330
1F
100
AcDbEntity
  8
DOWN_FEATURES
  6
CONTINUOUS
 62
     2
100
AcDbLine
 10
101.9827991283
 20
37.82
 30
0.0
 11
101.9827991283
 21
29.66
 31
0.0
  0
LINE
  5
78
330
1F
100
AcDbEntity
  8
DOWN_FEATURES
  6
CONTINUOUS
 62
     2
100
AcDbLine
 10
101.9827991283
 20
37.82
 30
0.0
 11
-0.9172008717
 21
37.82
 31
0.0
  0
LINE
  5
79
330
1F
100
AcDbEntity
  8
DOWN_FEATURES
  6
CONTINUOUS
 62
     2
100
AcDbLine
 10
101.9827991283
 20
39.82
 30
0.0
 11
101.9827991283
 21
37.82
 31
0.0
  0
LINE
  5
7A
330
1F
100
AcDbEntity
  8
DOWN_FEATURES
  6
CONTINUOUS
 62
     2
100
AcDbLine
 10
101.9827991283
 20
54.83
 30
0.0
 11
101.9827991283
 21
39.82
 31
0.0
  0
LINE
  5
7B
330
1F
100
AcDbEntity
  8
DOWN_FEATURES
  6
CONTINUOUS
 62
     2
100
AcDbLine
 10
101.9827991283
 20
54.83
 30
0.0
 11
-0.9172008717
 21
54.83
 31
0.0
  0
LINE
  5
7C
330
1F
100
AcDbEntity
  8
DOWN_FEATURES
  6
CONTINUOUS
 62
     2
100
AcDbLine
 10
101.9827991283
 20
56.83
 30
0.0
 11
101.9827991283
 21
54.83
 31
0.0
  0
LINE
  5
7D
330
1F
100
AcDbEntity
  8
DOWN_FEATURES
  6
CONTINUOUS
 62
     2
100
AcDbLine
 10
101.9827991283
 20
-30.17
 30
0.0
 11
-0.9172008717
 21
-30.17
 31
0.0
  0
LINE
  5
7E
330
1F
100
AcDbEntity
  8
DOWN_FEATURES
  6
CONTINUOUS
 62
     2
100
AcDbLine
 10
101.9827991283
 20
-11.16
 30
0.0
 11
101.9827991283
 21
-13.16
 31
0.0
  0
LINE
  5
7F
330
1F
100
AcDbEntity
  8
DOWN_FEATURES
  6
CONTINUOUS
 62
     2
100
AcDbLine
 10
101.9827991283
 20
-28.17
 30
0.0
 11
101.9827991283
 21
-30.17
 31
0.0
  0
LINE
  5
80
330
1F
100
AcDbEntity
  8
DOWN_FEATURES
  6
CONTINUOUS
 62
     2
100
AcDbLine
 10
101.9827991283
 20
-13.16
 30
0.0
 11
87.9209959363
 21
-13.16
 31
0.0
  0
LINE
  5
81
330
1F
100
AcDbEntity
  8
OUTER_LOOP
  6
CONTINUOUS
 62
     3
100
AcDbLine
 10
-2.9172008717
 20
-1.0
 30
0.0
 11
-2.9172008717
 21
27.66
 31
0.0
  0
LINE
  5
82
330
1F
100
AcDbEntity
  8
DOWN_FEATURES
  6
CONTINUOUS
 62
     2
100
AcDbLine
 10
-2.9172008717
 20
-11.16
 30
0.0
 11
-2.9172008717
 21
-1.0
 31
0.0
  0
LINE
  5
83
330
1F
100
AcDbEntity
  8
DOWN_FEATURES
  6
CONTINUOUS
 62
     2
100
AcDbLine
 10
-2.9172008717
 20
-28.17
 30
0.0
 11
-2.9172008717
 21
-11.16
 31
0.0
  0
LINE
  5
84
330
1F
100
AcDbEntity
  8
DOWN_FEATURES
  6
CONTINUOUS
 62
     2
100
AcDbLine
 10
-0.9172008717
 20
-28.17
 30
0.0
 11
101.9827991283
 21
-28.17
 31
0.0
  0
LINE
  5
85
330
1F
100
AcDbEntity
  8
DOWN_FEATURES
  6
CONTINUOUS
 62
     2
100
AcDbLine
 10
-0.9172008717
 20
-28.17
 30
0.0
 11
-0.9172008717
 21
-30.17
 31
0.0
  0
LINE
  5
86
330
1F
100
AcDbEntity
  8
DOWN_FEATURES
  6
CONTINUOUS
 62
     2
100
AcDbLine
 10
-0.9172008717
 20
-13.16
 30
0.0
 11
-0.9172008717
 21
-28.17
 31
0.0
  0
LINE
  5
87
330
1F
100
AcDbEntity
  8
DOWN_FEATURES
  6
CONTINUOUS
 62
     2
100
AcDbLine
 10
-0.9172008717
 20
-11.16
 30
0.0
 11
7.4062734074
 21
-11.16
 31
0.0
  0
LINE
  5
88
330
1F
100
AcDbEntity
  8
DOWN_FEATURES
  6
CONTINUOUS
 62
     2
100
AcDbLine
 10
-0.9172008717
 20
-11.16
 30
0.0
 11
-0.9172008717
 21
-13.16
 31
0.0
  0
LINE
  5
89
330
1F
100
AcDbEntity
  8
OUTER_LOOP
  6
CONTINUOUS
 62
     3
100
AcDbLine
 10
101.9827991283
 20
-3.0
 30
0.0
 11
-0.9172008717
 21
-3.0
 31
0.0
  0
LINE
  5
8A
330
1F
100
AcDbEntity
  8
OUTER_LOOP
  6
CONTINUOUS
 62
     3
100
AcDbLine
 10
-0.9172008717
 20
-1.5025712211
 30
0.0
 11
101.9827991283
 21
-1.5025742565
 31
0.0
  0
LINE
  5
8B
330
1F
100
AcDbEntity
  8
OUTER_LOOP
  6
CONTINUOUS
 62
     3
100
AcDbLine
 10
101.9827991283
 20
-1.5025742565
 30
0.0
 11
101.9827991283
 21
-3.0
 31
0.0
  0
LINE
  5
8C
330
1F
100
AcDbEntity
  8
DOWN_FEATURES
  6
CONTINUOUS
 62
     2
100
AcDbLine
 10
-0.9172008717
 20
-3.0
 30
0.0
 11
-0.9172008717
 21
-11.16
 31
0.0
  0
ELLIPSE
  5
8E
330
1F
100
AcDbEntity
  8
OTHER
  6
CONTINUOUS
 62
     3
100
AcDbEllipse
 10
-0.9172008717
 20
-1.0
 30
0.0
 11
-1.999999999999986
 21
-1.517883041479706E-15
 31
0.0
210
0.0
220
0.0
230
1.0
 40
0.2512856105
 41
0.0000000000000001
 42
1.570796326794897
  0
LINE
  5
8F
330
1F
100
AcDbEntity
  8
OTHER
  6
CONTINUOUS
 62
     3
100
AcDbLine
 10
-0.9172008717
 20
-3.0
 30
0.0
 11
-0.9172008717
 21
-1.5025712211
 31
0.0
  0
ARC
  5
90
330
1F
100
AcDbEntity
  8
OUTER_LOOP
  6
CONTINUOUS
 62
     3
100
AcDbCircle
 10
-0.9172008717
 20
-1.0
 30
0.0
 40
2.000000000000002
100
AcDbArc
 50
180.0
 51
270.0
  0
LINE
  5
91
330
1F
100
AcDbEntity
  8
DOWN_FEATURES
  6
CONTINUOUS
 62
     2
100
AcDbLine
 10
-0.9172008717
 20
-11.16
 30
0.0
 11
-2.9172008717
 21
-11.16
 31
0.0
  0
ARC
  5
92
330
1F
100
AcDbEntity
  8
DOWN_FEATURES
  6
CONTINUOUS
 62
     2
100
AcDbCircle
 10
-0.9172008717
 20
-11.16
 30
0.0
 40
2.000000000000002
100
AcDbArc
 50
180.0
 51
270.0
  0
LINE
  5
93
330
1F
100
AcDbEntity
  8
DOWN_FEATURES
  6
CONTINUOUS
 62
     2
100
AcDbLine
 10
-0.9172008717
 20
-28.17
 30
0.0
 11
-2.9172008717
 21
-28.17
 31
0.0
  0
ARC
  5
94
330
1F
100
AcDbEntity
  8
DOWN_FEATURES
  6
CONTINUOUS
 62
     2
100
AcDbCircle
 10
-0.9172008717
 20
-28.17
 30
0.0
 40
2.000000000000002
100
AcDbArc
 50
180.0
 51
270.0
  0
LINE
  5
95
330
1F
100
AcDbEntity
  8
OUTER_LOOP
  6
CONTINUOUS
 62
     3
100
AcDbLine
 10
-0.9172008717
 20
28.1625712211
 30
0.0
 11
-0.9172008717
 21
-1.5025712211
 31
0.0
  0
LINE
  5
96
330
1F
100
AcDbEntity
  8
OUTER_LOOP
  6
CONTINUOUS
 62
     3
100
AcDbLine
 10
101.9827991283
 20
28.162574257
 30
0.0
 11
-0.9172008717
 21
28.1625712211
 31
0.0
  0
LINE
  5
97
330
1F
100
AcDbEntity
  8
OUTER_LOOP
  6
CONTINUOUS
 62
     3
100
AcDbLine
 10
-0.9172008717
 20
29.66
 30
0.0
 11
101.9827991283
 21
29.66
 31
0.0
  0
LINE
  5
98
330
1F
100
AcDbEntity
  8
OUTER_LOOP
  6
CONTINUOUS
 62
     3
100
AcDbLine
 10
101.9827991283
 20
29.66
 30
0.0
 11
101.9827991283
 21
28.162574257
 31
0.0
  0
ELLIPSE
  5
99
330
1F
100
AcDbEntity
  8
OTHER
  6
CONTINUOUS
 62
     3
100
AcDbEllipse
 10
-0.9172008717
 20
27.66
 30
0.0
 11
1.999999999999986
 21
0.0
 31
0.0
210
0.0
220
0.0
230
1.0
 40
0.2512856105
 41
1.570796326794895
 42
3.141592653589793
  0
LINE
  5
9A
330
1F
100
AcDbEntity
  8
DOWN_FEATURES
  6
CONTINUOUS
 62
     2
100
AcDbLine
 10
-2.9172008717
 20
37.82
 30
0.0
 11
-2.9172008717
 21
54.83
 31
0.0
  0
LINE
  5
9B
330
1F
100
AcDbEntity
  8
DOWN_FEATURES
  6
CONTINUOUS
 62
     2
100
AcDbLine
 10
-2.9172008717
 20
27.66
 30
0.0
 11
-2.9172008717
 21
37.82
 31
0.0
  0
LINE
  5
9C
330
1F
100
AcDbEntity
  8
DOWN_FEATURES
  6
CONTINUOUS
 62
     2
100
AcDbLine
 10
-0.9172008717
 20
37.82
 30
0.0
 11
-0.9172008717
 21
29.66
 31
0.0
  0
LINE
  5
9D
330
1F
100
AcDbEntity
  8
DOWN_FEATURES
  6
CONTINUOUS
 62
     2
100
AcDbLine
 10
-0.9172008717
 20
39.82
 30
0.0
 11
9.7314520991
 21
39.82
 31
0.0
  0
LINE
  5
9E
330
1F
100
AcDbEntity
  8
DOWN_FEATURES
  6
CONTINUOUS
 62
     2
100
AcDbLine
 10
-0.9172008717
 20
39.82
 30
0.0
 11
-0.9172008717
 21
37.82
 31
0.0
  0
LINE
  5
9F
330
1F
100
AcDbEntity
  8
DOWN_FEATURES
  6
CONTINUOUS
 62
     2
100
AcDbLine
 10
-0.9172008717
 20
54.83
 30
0.0
 11
-0.9172008717
 21
39.82
 31
0.0
  0
LINE
  5
A0
330
1F
100
AcDbEntity
  8
DOWN_FEATURES
  6
CONTINUOUS
 62
     2
100
AcDbLine
 10
-0.9172008717
 20
56.83
 30
0.0
 11
101.9827991283
 21
56.83
 31
0.0
  0
LINE
  5
A1
330
1F
100
AcDbEntity
  8
DOWN_FEATURES
  6
CONTINUOUS
 62
     2
100
AcDbLine
 10
-0.9172008717
 20
56.83
 30
0.0
 11
-0.9172008717
 21
54.83
 31
0.0
  0
ARC
  5
A2
330
1F
100
AcDbEntity
  8
DOWN_FEATURES
  6
CONTINUOUS
 62
     2
100
AcDbCircle
 10
-0.9172008717
 20
54.83
 30
0.0
 40
2.000000000000002
100
AcDbArc
 50
90.0
 51
180.0
  0
LINE
  5
A3
330
1F
100
AcDbEntity
  8
DOWN_FEATURES
  6
CONTINUOUS
 62
     2
100
AcDbLine
 10
-0.9172008717
 20
54.83
 30
0.0
 11
-2.9172008717
 21
54.83
 31
0.0
  0
ARC
  5
A4
330
1F
100
AcDbEntity
  8
DOWN_FEATURES
  6
CONTINUOUS
 62
     2
100
AcDbCircle
 10
-0.9172008717
 20
37.82
 30
0.0
 40
2.000000000000002
100
AcDbArc
 50
90.0
 51
180.0
  0
LINE
  5
A5
330
1F
100
AcDbEntity
  8
DOWN_FEATURES
  6
CONTINUOUS
 62
     2
100
AcDbLine
 10
-0.9172008717
 20
37.82
 30
0.0
 11
-2.9172008717
 21
37.82
 31
0.0
  0
ARC
  5
A6
330
1F
100
AcDbEntity
  8
OTHER
  6
CONTINUOUS
 62
     3
100
AcDbCircle
 10
-0.9172008717
 20
27.66
 30
0.0
 40
2.000000000000002
100
AcDbArc
 50
90.0
 51
180.0
  0
LINE
  5
A7
330
1F
100
AcDbEntity
  8
OUTER_LOOP
  6
CONTINUOUS
 62
     3
100
AcDbLine
 10
-0.9172008717
 20
29.66
 30
0.0
 11
-0.9172008717
 21
28.1625712211
 31
0.0
  0
LINE
  5
A8
330
1F
100
AcDbEntity
  8
OUTER_LOOP
  6
HIDDEN2
 62
     3
100
AcDbLine
 10
98.9827991283
 20
-1.6
 30
0.0
 11
98.9827991283
 21
0.0
 31
0.0
  0
LINE
  5
AA
330
1F
100
AcDbEntity
  8
UP_FEATURES
  6
CONTINUOUS
 62
     3
100
AcDbLine
 10
98.9827991283
 20
26.66
 30
0.0
 11
98.9827991283
 21
0.0
 31
0.0
  0
LINE
  5
AB
330
1F
100
AcDbEntity
  8
UP_FEATURES
  6
CONTINUOUS
 62
     3
100
AcDbLine
 10
0.0
 20
26.66
 30
0.0
 11
98.9827991283
 21
26.66
 31
0.0
  0
LINE
  5
AC
330
1F
100
AcDbEntity
  8
UP_FEATURES
  6
CONTINUOUS
 62
     3
100
AcDbLine
 10
0.0
 20
0.0
 30
0.0
 11
98.9827991283
 21
0.0
 31
0.0
  0
LINE
  5
AD
330
1F
100
AcDbEntity
  8
UP_FEATURES
  6
CONTINUOUS
 62
     3
100
AcDbLine
 10
0.0
 20
0.0
 30
0.0
 11
0.0
 21
26.66
 31
0.0
  0
LINE
  5
AE
330
1F
100
AcDbEntity
  8
OUTER_LOOP
  6
HIDDEN2
 62
     3
100
AcDbLine
 10
0.0
 20
-1.6
 30
0.0
 11
0.0
 21
0.0
 31
0.0
  0
LINE
  5
AF
330
1F
100
AcDbEntity
  8
OUTER_LOOP
  6
HIDDEN2
 62
     3
100
AcDbLine
 10
100.5827991283
 20
28.26
 30
0.0
 11
98.9827991283
 21
28.26
 31
0.0
  0
LINE
  5
B0
330
1F
100
AcDbEntity
  8
OUTER_LOOP
  6
HIDDEN2
 62
     3
100
AcDbLine
 10
0.0
 20
-1.6
 30
0.0
 11
-1.5172008717
 21
-1.6
 31
0.0
  0
LINE
  5
B1
330
1F
100
AcDbEntity
  8
OTHER
  6
HIDDEN2
 62
     3
100
AcDbLine
 10
0.0
 20
-1.6
 30
0.0
 11
98.9827991283
 21
-1.6
 31
0.0
  0
LINE
  5
B2
330
1F
100
AcDbEntity
  8
OTHER
  6
HIDDEN2
 62
     3
100
AcDbLine
 10
98.9827991283
 20
28.26
 30
0.0
 11
0.0
 21
28.26
 31
0.0
  0
LINE
  5
B3
330
1F
100
AcDbEntity
  8
OUTER_LOOP
  6
HIDDEN2
 62
     3
100
AcDbLine
 10
98.9827991283
 20
26.66
 30
0.0
 11
98.9827991283
 21
28.26
 31
0.0
  0
LINE
  5
B4
330
1F
100
AcDbEntity
  8
OUTER_LOOP
  6
HIDDEN2
 62
     3
100
AcDbLine
 10
0.0
 20
26.66
 30
0.0
 11
0.0
 21
28.26
 31
0.0
  0
LINE
  5
B5
330
1F
100
AcDbEntity
  8
DOWN_FEATURES
  6
CONTINUOUS
 62
     2
100
AcDbLine
 10
90.2862734074
 20
39.82
 30
0.0
 11
101.9827991283
 21
39.82
 31
0.0
  0
LINE
  5
B6
330
1F
100
AcDbEntity
  8
DOWN_FEATURES
  6
CONTINUOUS
 62
     2
100
AcDbLine
 10
86.6914520991
 20
37.9604681634
 30
0.0
 11
90.2862734074
 21
37.9604681634
 31
0.0
  0
LINE
  5
B7
330
1F
100
AcDbEntity
  8
DOWN_FEATURES
  6
CONTINUOUS
 62
     2
100
AcDbLine
 10
90.2862734074
 20
39.82
 30
0.0
 11
90.2862734074
 21
37.9604681634
 31
0.0
  0
LINE
  5
B8
330
1F
100
AcDbEntity
  8
DOWN_FEATURES
  6
CONTINUOUS
 62
     2
100
AcDbLine
 10
86.6914520991
 20
37.9604681634
 30
0.0
 11
86.6914520991
 21
39.82
 31
0.0
  0
LINE
  5
B9
330
1F
100
AcDbEntity
  8
DOWN_FEATURES
  6
HIDDEN2
 62
     2
100
AcDbLine
 10
86.6914520991
 20
38.42
 30
0.0
 11
84.3662734074
 21
38.42
 31
0.0
  0
LINE
  5
BA
330
1F
100
AcDbEntity
  8
DOWN_FEATURES
  6
CONTINUOUS
 62
     2
100
AcDbLine
 10
90.2862734074
 20
38.42
 30
0.0
 11
86.6914520991
 21
38.42
 31
0.0
  0
LINE
  5
BB
330
1F
100
AcDbEntity
  8
DOWN_FEATURES
  6
CONTINUOUS
 62
     2
100
AcDbLine
 10
86.6914520991
 20
39.82
 30
0.0
 11
90.2862734074
 21
39.82
 31
0.0
  0
LINE
  5
BC
330
1F
100
AcDbEntity
  8
DOWN_FEATURES
  6
CONTINUOUS
 62
     2
100
AcDbLine
 10
84.3662734074
 20
39.82
 30
0.0
 11
86.6914520991
 21
39.82
 31
0.0
  0
LINE
  5
BD
330
1F
100
AcDbEntity
  8
DOWN_FEATURES
  6
HIDDEN2
 62
     2
100
AcDbLine
 10
80.7714520991
 20
38.42
 30
0.0
 11
78.4462734074
 21
38.42
 31
0.0
  0
LINE
  5
BE
330
1F
100
AcDbEntity
  8
DOWN_FEATURES
  6
CONTINUOUS
 62
     2
100
AcDbLine
 10
80.7714520991
 20
37.9604681634
 30
0.0
 11
84.3662734074
 21
37.9604681634
 31
0.0
  0
LINE
  5
BF
330
1F
100
AcDbEntity
  8
DOWN_FEATURES
  6
CONTINUOUS
 62
     2
100
AcDbLine
 10
84.3662734074
 20
39.82
 30
0.0
 11
84.3662734074
 21
37.9604681634
 31
0.0
  0
LINE
  5
C0
330
1F
100
AcDbEntity
  8
DOWN_FEATURES
  6
CONTINUOUS
 62
     2
100
AcDbLine
 10
80.7714520991
 20
39.82
 30
0.0
 11
84.3662734074
 21
39.82
 31
0.0
  0
LINE
  5
C1
330
1F
100
AcDbEntity
  8
DOWN_FEATURES
  6
CONTINUOUS
 62
     2
100
AcDbLine
 10
84.3662734074
 20
38.42
 30
0.0
 11
80.7714520991
 21
38.42
 31
0.0
  0
LINE
  5
C2
330
1F
100
AcDbEntity
  8
DOWN_FEATURES
  6
CONTINUOUS
 62
     2
100
AcDbLine
 10
80.7714520991
 20
37.9604681634
 30
0.0
 11
80.7714520991
 21
39.82
 31
0.0
  0
LINE
  5
C3
330
1F
100
AcDbEntity
  8
DOWN_FEATURES
  6
CONTINUOUS
 62
     2
100
AcDbLine
 10
78.4462734074
 20
39.82
 30
0.0
 11
80.7714520991
 21
39.82
 31
0.0
  0
LINE
  5
C4
330
1F
100
AcDbEntity
  8
DOWN_FEATURES
  6
HIDDEN2
 62
     2
100
AcDbLine
 10
74.8514520991
 20
38.42
 30
0.0
 11
72.5262734074
 21
38.42
 31
0.0
  0
LINE
  5
C5
330
1F
100
AcDbEntity
  8
DOWN_FEATURES
  6
CONTINUOUS
 62
     2
100
AcDbLine
 10
74.8514520991
 20
37.9604681634
 30
0.0
 11
78.4462734074
 21
37.9604681634
 31
0.0
  0
LINE
  5
C6
330
1F
100
AcDbEntity
  8
DOWN_FEATURES
  6
CONTINUOUS
 62
     2
100
AcDbLine
 10
78.4462734074
 20
39.82
 30
0.0
 11
78.4462734074
 21
37.9604681634
 31
0.0
  0
LINE
  5
C7
330
1F
100
AcDbEntity
  8
DOWN_FEATURES
  6
CONTINUOUS
 62
     2
100
AcDbLine
 10
74.8514520991
 20
39.82
 30
0.0
 11
78.4462734074
 21
39.82
 31
0.0
  0
LINE
  5
C8
330
1F
100
AcDbEntity
  8
DOWN_FEATURES
  6
CONTINUOUS
 62
     2
100
AcDbLine
 10
78.4462734074
 20
38.42
 30
0.0
 11
74.8514520991
 21
38.42
 31
0.0
  0
LINE
  5
C9
330
1F
100
AcDbEntity
  8
DOWN_FEATURES
  6
CONTINUOUS
 62
     2
100
AcDbLine
 10
74.8514520991
 20
37.9604681634
 30
0.0
 11
74.8514520991
 21
39.82
 31
0.0
  0
LINE
  5
CA
330
1F
100
AcDbEntity
  8
DOWN_FEATURES
  6
CONTINUOUS
 62
     2
100
AcDbLine
 10
72.5262734074
 20
39.82
 30
0.0
 11
74.8514520991
 21
39.82
 31
0.0
  0
LINE
  5
CB
330
1F
100
AcDbEntity
  8
DOWN_FEATURES
  6
HIDDEN2
 62
     2
100
AcDbLine
 10
68.9314520991
 20
38.42
 30
0.0
 11
66.6062734074
 21
38.42
 31
0.0
  0
LINE
  5
CC
330
1F
100
AcDbEntity
  8
DOWN_FEATURES
  6
CONTINUOUS
 62
     2
100
AcDbLine
 10
68.9314520991
 20
37.9604681634
 30
0.0
 11
72.5262734074
 21
37.9604681634
 31
0.0
  0
LINE
  5
CD
330
1F
100
AcDbEntity
  8
DOWN_FEATURES
  6
CONTINUOUS
 62
     2
100
AcDbLine
 10
72.5262734074
 20
39.82
 30
0.0
 11
72.5262734074
 21
37.9604681634
 31
0.0
  0
LINE
  5
CE
330
1F
100
AcDbEntity
  8
DOWN_FEATURES
  6
CONTINUOUS
 62
     2
100
AcDbLine
 10
68.9314520991
 20
39.82
 30
0.0
 11
72.5262734074
 21
39.82
 31
0.0
  0
LINE
  5
CF
330
1F
100
AcDbEntity
  8
DOWN_FEATURES
  6
CONTINUOUS
 62
     2
100
AcDbLine
 10
72.5262734074
 20
38.42
 30
0.0
 11
68.9314520991
 21
38.42
 31
0.0
  0
LINE
  5
D0
330
1F
100
AcDbEntity
  8
DOWN_FEATURES
  6
CONTINUOUS
 62
     2
100
AcDbLine
 10
68.9314520991
 20
37.9604681634
 30
0.0
 11
68.9314520991
 21
39.82
 31
0.0
  0
LINE
  5
D1
330
1F
100
AcDbEntity
  8
DOWN_FEATURES
  6
CONTINUOUS
 62
     2
100
AcDbLine
 10
66.6062734074
 20
39.82
 30
0.0
 11
68.9314520991
 21
39.82
 31
0.0
  0
LINE
  5
D2
330
1F
100
AcDbEntity
  8
DOWN_FEATURES
  6
HIDDEN2
 62
     2
100
AcDbLine
 10
63.0114520991
 20
38.42
 30
0.0
 11
60.6862734074
 21
38.42
 31
0.0
  0
LINE
  5
D3
330
1F
100
AcDbEntity
  8
DOWN_FEATURES
  6
CONTINUOUS
 62
     2
100
AcDbLine
 10
63.0114520991
 20
37.9604681634
 30
0.0
 11
66.6062734074
 21
37.9604681634
 31
0.0
  0
LINE
  5
D4
330
1F
100
AcDbEntity
  8
DOWN_FEATURES
  6
CONTINUOUS
 62
     2
100
AcDbLine
 10
66.6062734074
 20
39.82
 30
0.0
 11
66.6062734074
 21
37.9604681634
 31
0.0
  0
LINE
  5
D5
330
1F
100
AcDbEntity
  8
DOWN_FEATURES
  6
CONTINUOUS
 62
     2
100
AcDbLine
 10
63.0114520991
 20
39.82
 30
0.0
 11
66.6062734074
 21
39.82
 31
0.0
  0
LINE
  5
D6
330
1F
100
AcDbEntity
  8
DOWN_FEATURES
  6
CONTINUOUS
 62
     2
100
AcDbLine
 10
66.6062734074
 20
38.42
 30
0.0
 11
63.0114520991
 21
38.42
 31
0.0
  0
LINE
  5
D7
330
1F
100
AcDbEntity
  8
DOWN_FEATURES
  6
CONTINUOUS
 62
     2
100
AcDbLine
 10
63.0114520991
 20
37.9604681634
 30
0.0
 11
63.0114520991
 21
39.82
 31
0.0
  0
LINE
  5
D8
330
1F
100
AcDbEntity
  8
DOWN_FEATURES
  6
CONTINUOUS
 62
     2
100
AcDbLine
 10
60.6862734074
 20
39.82
 30
0.0
 11
63.0114520991
 21
39.82
 31
0.0
  0
LINE
  5
D9
330
1F
100
AcDbEntity
  8
DOWN_FEATURES
  6
HIDDEN2
 62
     2
100
AcDbLine
 10
57.0914520991
 20
38.42
 30
0.0
 11
54.7662734074
 21
38.42
 31
0.0
  0
LINE
  5
DA
330
1F
100
AcDbEntity
  8
DOWN_FEATURES
  6
CONTINUOUS
 62
     2
100
AcDbLine
 10
57.0914520991
 20
37.9604681634
 30
0.0
 11
60.6862734074
 21
37.9604681634
 31
0.0
  0
LINE
  5
DB
330
1F
100
AcDbEntity
  8
DOWN_FEATURES
  6
CONTINUOUS
 62
     2
100
AcDbLine
 10
60.6862734074
 20
39.82
 30
0.0
 11
60.6862734074
 21
37.9604681634
 31
0.0
  0
LINE
  5
DC
330
1F
100
AcDbEntity
  8
DOWN_FEATURES
  6
CONTINUOUS
 62
     2
100
AcDbLine
 10
57.0914520991
 20
39.82
 30
0.0
 11
60.6862734074
 21
39.82
 31
0.0
  0
LINE
  5
DD
330
1F
100
AcDbEntity
  8
DOWN_FEATURES
  6
CONTINUOUS
 62
     2
100
AcDbLine
 10
60.6862734074
 20
38.42
 30
0.0
 11
57.0914520991
 21
38.42
 31
0.0
  0
LINE
  5
DE
330
1F
100
AcDbEntity
  8
DOWN_FEATURES
  6
CONTINUOUS
 62
     2
100
AcDbLine
 10
57.0914520991
 20
37.9604681634
 30
0.0
 11
57.0914520991
 21
39.82
 31
0.0
  0
LINE
  5
DF
330
1F
100
AcDbEntity
  8
DOWN_FEATURES
  6
CONTINUOUS
 62
     2
100
AcDbLine
 10
54.7662734074
 20
39.82
 30
0.0
 11
57.0914520991
 21
39.82
 31
0.0
  0
LINE
  5
E0
330
1F
100
AcDbEntity
  8
DOWN_FEATURES
  6
HIDDEN2
 62
     2
100
AcDbLine
 10
51.1714520991
 20
38.42
 30
0.0
 11
48.8462734074
 21
38.42
 31
0.0
  0
LINE
  5
E1
330
1F
100
AcDbEntity
  8
DOWN_FEATURES
  6
CONTINUOUS
 62
     2
100
AcDbLine
 10
51.1714520991
 20
37.9604681634
 30
0.0
 11
54.7662734074
 21
37.9604681634
 31
0.0
  0
LINE
  5
E2
330
1F
100
AcDbEntity
  8
DOWN_FEATURES
  6
CONTINUOUS
 62
     2
100
AcDbLine
 10
54.7662734074
 20
39.82
 30
0.0
 11
54.7662734074
 21
37.9604681634
 31
0.0
  0
LINE
  5
E3
330
1F
100
AcDbEntity
  8
DOWN_FEATURES
  6
CONTINUOUS
 62
     2
100
AcDbLine
 10
51.1714520991
 20
39.82
 30
0.0
 11
54.7662734074
 21
39.82
 31
0.0
  0
LINE
  5
E4
330
1F
100
AcDbEntity
  8
DOWN_FEATURES
  6
CONTINUOUS
 62
     2
100
AcDbLine
 10
54.7662734074
 20
38.42
 30
0.0
 11
51.1714520991
 21
38.42
 31
0.0
  0
LINE
  5
E5
330
1F
100
AcDbEntity
  8
DOWN_FEATURES
  6
CONTINUOUS
 62
     2
100
AcDbLine
 10
51.1714520991
 20
37.9604681634
 30
0.0
 11
51.1714520991
 21
39.82
 31
0.0
  0
LINE
  5
E6
330
1F
100
AcDbEntity
  8
DOWN_FEATURES
  6
CONTINUOUS
 62
     2
100
AcDbLine
 10
48.8462734074
 20
39.82
 30
0.0
 11
51.1714520991
 21
39.82
 31
0.0
  0
LINE
  5
E7
330
1F
100
AcDbEntity
  8
DOWN_FEATURES
  6
HIDDEN2
 62
     2
100
AcDbLine
 10
45.2514520991
 20
38.42
 30
0.0
 11
42.9262734074
 21
38.42
 31
0.0
  0
LINE
  5
E8
330
1F
100
AcDbEntity
  8
DOWN_FEATURES
  6
CONTINUOUS
 62
     2
100
AcDbLine
 10
45.2514520991
 20
37.9604681634
 30
0.0
 11
48.8462734074
 21
37.9604681634
 31
0.0
  0
LINE
  5
E9
330
1F
100
AcDbEntity
  8
DOWN_FEATURES
  6
CONTINUOUS
 62
     2
100
AcDbLine
 10
48.8462734074
 20
39.82
 30
0.0
 11
48.8462734074
 21
37.9604681634
 31
0.0
  0
LINE
  5
EA
330
1F
100
AcDbEntity
  8
DOWN_FEATURES
  6
CONTINUOUS
 62
     2
100
AcDbLine
 10
45.2514520991
 20
39.82
 30
0.0
 11
48.8462734074
 21
39.82
 31
0.0
  0
LINE
  5
EB
330
1F
100
AcDbEntity
  8
DOWN_FEATURES
  6
CONTINUOUS
 62
     2
100
AcDbLine
 10
48.8462734074
 20
38.42
 30
0.0
 11
45.2514520991
 21
38.42
 31
0.0
  0
LINE
  5
EC
330
1F
100
AcDbEntity
  8
DOWN_FEATURES
  6
CONTINUOUS
 62
     2
100
AcDbLine
 10
45.2514520991
 20
37.9604681634
 30
0.0
 11
45.2514520991
 21
39.82
 31
0.0
  0
LINE
  5
ED
330
1F
100
AcDbEntity
  8
DOWN_FEATURES
  6
CONTINUOUS
 62
     2
100
AcDbLine
 10
42.9262734074
 20
39.82
 30
0.0
 11
45.2514520991
 21
39.82
 31
0.0
  0
LINE
  5
EE
330
1F
100
AcDbEntity
  8
DOWN_FEATURES
  6
HIDDEN2
 62
     2
100
AcDbLine
 10
39.3314520991
 20
38.42
 30
0.0
 11
37.0062734074
 21
38.42
 31
0.0
  0
LINE
  5
EF
330
1F
100
AcDbEntity
  8
DOWN_FEATURES
  6
CONTINUOUS
 62
     2
100
AcDbLine
 10
39.3314520991
 20
37.9604681634
 30
0.0
 11
42.9262734074
 21
37.9604681634
 31
0.0
  0
LINE
  5
F0
330
1F
100
AcDbEntity
  8
DOWN_FEATURES
  6
CONTINUOUS
 62
     2
100
AcDbLine
 10
42.9262734074
 20
39.82
 30
0.0
 11
42.9262734074
 21
37.9604681634
 31
0.0
  0
LINE
  5
F1
330
1F
100
AcDbEntity
  8
DOWN_FEATURES
  6
CONTINUOUS
 62
     2
100
AcDbLine
 10
39.3314520991
 20
39.82
 30
0.0
 11
42.9262734074
 21
39.82
 31
0.0
  0
LINE
  5
F2
330
1F
100
AcDbEntity
  8
DOWN_FEATURES
  6
CONTINUOUS
 62
     2
100
AcDbLine
 10
42.9262734074
 20
38.42
 30
0.0
 11
39.3314520991
 21
38.42
 31
0.0
  0
LINE
  5
F3
330
1F
100
AcDbEntity
  8
DOWN_FEATURES
  6
CONTINUOUS
 62
     2
100
AcDbLine
 10
39.3314520991
 20
37.9604681634
 30
0.0
 11
39.3314520991
 21
39.82
 31
0.0
  0
LINE
  5
F4
330
1F
100
AcDbEntity
  8
DOWN_FEATURES
  6
CONTINUOUS
 62
     2
100
AcDbLine
 10
37.0062734074
 20
39.82
 30
0.0
 11
39.3314520991
 21
39.82
 31
0.0
  0
LINE
  5
F5
330
1F
100
AcDbEntity
  8
DOWN_FEATURES
  6
HIDDEN2
 62
     2
100
AcDbLine
 10
33.4114520991
 20
38.42
 30
0.0
 11
31.0862734074
 21
38.42
 31
0.0
  0
LINE
  5
F6
330
1F
100
AcDbEntity
  8
DOWN_FEATURES
  6
CONTINUOUS
 62
     2
100
AcDbLine
 10
33.4114520991
 20
37.9604681634
 30
0.0
 11
37.0062734074
 21
37.9604681634
 31
0.0
  0
LINE
  5
F7
330
1F
100
AcDbEntity
  8
DOWN_FEATURES
  6
CONTINUOUS
 62
     2
100
AcDbLine
 10
37.0062734074
 20
39.82
 30
0.0
 11
37.0062734074
 21
37.9604681634
 31
0.0
  0
LINE
  5
F8
330
1F
100
AcDbEntity
  8
DOWN_FEATURES
  6
CONTINUOUS
 62
     2
100
AcDbLine
 10
33.4114520991
 20
39.82
 30
0.0
 11
37.0062734074
 21
39.82
 31
0.0
  0
LINE
  5
F9
330
1F
100
AcDbEntity
  8
DOWN_FEATURES
  6
CONTINUOUS
 62
     2
100
AcDbLine
 10
37.0062734074
 20
38.42
 30
0.0
 11
33.4114520991
 21
38.42
 31
0.0
  0
LINE
  5
FA
330
1F
100
AcDbEntity
  8
DOWN_FEATURES
  6
CONTINUOUS
 62
     2
100
AcDbLine
 10
33.4114520991
 20
37.9604681634
 30
0.0
 11
33.4114520991
 21
39.82
 31
0.0
  0
LINE
  5
FB
330
1F
100
AcDbEntity
  8
DOWN_FEATURES
  6
CONTINUOUS
 62
     2
100
AcDbLine
 10
31.0862734074
 20
39.82
 30
0.0
 11
33.4114520991
 21
39.82
 31
0.0
  0
LINE
  5
FC
330
1F
100
AcDbEntity
  8
DOWN_FEATURES
  6
HIDDEN2
 62
     2
100
AcDbLine
 10
27.4914520991
 20
38.42
 30
0.0
 11
25.1662734074
 21
38.42
 31
0.0
  0
LINE
  5
FD
330
1F
100
AcDbEntity
  8
DOWN_FEATURES
  6
CONTINUOUS
 62
     2
100
AcDbLine
 10
27.4914520991
 20
37.9604681634
 30
0.0
 11
31.0862734074
 21
37.9604681634
 31
0.0
  0
LINE
  5
FE
330
1F
100
AcDbEntity
  8
DOWN_FEATURES
  6
CONTINUOUS
 62
     2
100
AcDbLine
 10
31.0862734074
 20
39.82
 30
0.0
 11
31.0862734074
 21
37.9604681634
 31
0.0
  0
LINE
  5
FF
330
1F
100
AcDbEntity
  8
DOWN_FEATURES
  6
CONTINUOUS
 62
     2
100
AcDbLine
 10
27.4914520991
 20
39.82
 30
0.0
 11
31.0862734074
 21
39.82
 31
0.0
  0
LINE
  5
100
330
1F
100
AcDbEntity
  8
DOWN_FEATURES
  6
CONTINUOUS
 62
     2
100
AcDbLine
 10
31.0862734074
 20
38.42
 30
0.0
 11
27.4914520991
 21
38.42
 31
0.0
  0
LINE
  5
101
330
1F
100
AcDbEntity
  8
DOWN_FEATURES
  6
CONTINUOUS
 62
     2
100
AcDbLine
 10
27.4914520991
 20
37.9604681634
 30
0.0
 11
27.4914520991
 21
39.82
 31
0.0
  0
LINE
  5
102
330
1F
100
AcDbEntity
  8
DOWN_FEATURES
  6
CONTINUOUS
 62
     2
100
AcDbLine
 10
25.1662734074
 20
39.82
 30
0.0
 11
27.4914520991
 21
39.82
 31
0.0
  0
LINE
  5
103
330
1F
100
AcDbEntity
  8
DOWN_FEATURES
  6
HIDDEN2
 62
     2
100
AcDbLine
 10
21.5714520991
 20
38.42
 30
0.0
 11
19.2462734074
 21
38.42
 31
0.0
  0
LINE
  5
104
330
1F
100
AcDbEntity
  8
DOWN_FEATURES
  6
CONTINUOUS
 62
     2
100
AcDbLine
 10
21.5714520991
 20
37.9604681634
 30
0.0
 11
25.1662734074
 21
37.9604681634
 31
0.0
  0
LINE
  5
105
330
1F
100
AcDbEntity
  8
DOWN_FEATURES
  6
CONTINUOUS
 62
     2
100
AcDbLine
 10
25.1662734074
 20
39.82
 30
0.0
 11
25.1662734074
 21
37.9604681634
 31
0.0
  0
LINE
  5
106
330
1F
100
AcDbEntity
  8
DOWN_FEATURES
  6
CONTINUOUS
 62
     2
100
AcDbLine
 10
21.5714520991
 20
39.82
 30
0.0
 11
25.1662734074
 21
39.82
 31
0.0
  0
LINE
  5
107
330
1F
100
AcDbEntity
  8
DOWN_FEATURES
  6
CONTINUOUS
 62
     2
100
AcDbLine
 10
25.1662734074
 20
38.42
 30
0.0
 11
21.5714520991
 21
38.42
 31
0.0
  0
LINE
  5
108
330
1F
100
AcDbEntity
  8
DOWN_FEATURES
  6
CONTINUOUS
 62
     2
100
AcDbLine
 10
21.5714520991
 20
37.9604681634
 30
0.0
 11
21.5714520991
 21
39.82
 31
0.0
  0
LINE
  5
109
330
1F
100
AcDbEntity
  8
DOWN_FEATURES
  6
CONTINUOUS
 62
     2
100
AcDbLine
 10
19.2462734074
 20
39.82
 30
0.0
 11
21.5714520991
 21
39.82
 31
0.0
  0
LINE
  5
10A
330
1F
100
AcDbEntity
  8
DOWN_FEATURES
  6
HIDDEN2
 62
     2
100
AcDbLine
 10
15.6514520991
 20
38.42
 30
0.0
 11
13.3262734074
 21
38.42
 31
0.0
  0
LINE
  5
10B
330
1F
100
AcDbEntity
  8
DOWN_FEATURES
  6
CONTINUOUS
 62
     2
100
AcDbLine
 10
15.6514520991
 20
37.9604681634
 30
0.0
 11
19.2462734074
 21
37.9604681634
 31
0.0
  0
LINE
  5
10C
330
1F
100
AcDbEntity
  8
DOWN_FEATURES
  6
CONTINUOUS
 62
     2
100
AcDbLine
 10
19.2462734074
 20
39.82
 30
0.0
 11
19.2462734074
 21
37.9604681634
 31
0.0
  0
LINE
  5
10D
330
1F
100
AcDbEntity
  8
DOWN_FEATURES
  6
CONTINUOUS
 62
     2
100
AcDbLine
 10
15.6514520991
 20
39.82
 30
0.0
 11
19.2462734074
 21
39.82
 31
0.0
  0
LINE
  5
10E
330
1F
100
AcDbEntity
  8
DOWN_FEATURES
  6
CONTINUOUS
 62
     2
100
AcDbLine
 10
19.2462734074
 20
38.42
 30
0.0
 11
15.6514520991
 21
38.42
 31
0.0
  0
LINE
  5
10F
330
1F
100
AcDbEntity
  8
DOWN_FEATURES
  6
CONTINUOUS
 62
     2
100
AcDbLine
 10
15.6514520991
 20
37.9604681634
 30
0.0
 11
15.6514520991
 21
39.82
 31
0.0
  0
LINE
  5
110
330
1F
100
AcDbEntity
  8
DOWN_FEATURES
  6
CONTINUOUS
 62
     2
100
AcDbLine
 10
13.3262734074
 20
39.82
 30
0.0
 11
15.6514520991
 21
39.82
 31
0.0
  0
LINE
  5
111
330
1F
100
AcDbEntity
  8
DOWN_FEATURES
  6
HIDDEN2
 62
     2
100
AcDbLine
 10
9.7314520991
 20
38.42
 30
0.0
 11
-1.5172008717
 21
38.42
 31
0.0
  0
LINE
  5
112
330
1F
100
AcDbEntity
  8
DOWN_FEATURES
  6
CONTINUOUS
 62
     2
100
AcDbLine
 10
9.7314520991
 20
37.9604681634
 30
0.0
 11
13.3262734074
 21
37.9604681634
 31
0.0
  0
LINE
  5
113
330
1F
100
AcDbEntity
  8
DOWN_FEATURES
  6
CONTINUOUS
 62
     2
100
AcDbLine
 10
13.3262734074
 20
39.82
 30
0.0
 11
13.3262734074
 21
37.9604681634
 31
0.0
  0
LINE
  5
114
330
1F
100
AcDbEntity
  8
DOWN_FEATURES
  6
CONTINUOUS
 62
     2
100
AcDbLine
 10
9.7314520991
 20
39.82
 30
0.0
 11
13.3262734074
 21
39.82
 31
0.0
  0
LINE
  5
115
330
1F
100
AcDbEntity
  8
DOWN_FEATURES
  6
CONTINUOUS
 62
     2
100
AcDbLine
 10
13.3262734074
 20
38.42
 30
0.0
 11
9.7314520991
 21
38.42
 31
0.0
  0
LINE
  5
116
330
1F
100
AcDbEntity
  8
DOWN_FEATURES
  6
CONTINUOUS
 62
     2
100
AcDbLine
 10
9.7314520991
 20
37.9604681634
 30
0.0
 11
9.7314520991
 21
39.82
 31
0.0
  0
LINE
  5
117
330
1F
100
AcDbEntity
  8
DOWN_FEATURES
  6
CONTINUOUS
 62
     2
100
AcDbLine
 10
87.9209959363
 20
-11.16
 30
0.0
 11
101.9827991283
 21
-11.16
 31
0.0
  0
LINE
  5
118
330
1F
100
AcDbEntity
  8
DOWN_FEATURES
  6
CONTINUOUS
 62
     2
100
AcDbLine
 10
84.3662734074
 20
-13.16
 30
0.0
 11
82.0009959363
 21
-13.16
 31
0.0
  0
LINE
  5
119
330
1F
100
AcDbEntity
  8
DOWN_FEATURES
  6
CONTINUOUS
 62
     2
100
AcDbLine
 10
84.3662734074
 20
-13.16
 30
0.0
 11
84.3662734074
 21
-11.16
 31
0.0
  0
LINE
  5
11A
330
1F
100
AcDbEntity
  8
DOWN_FEATURES
  6
CONTINUOUS
 62
     2
100
AcDbLine
 10
87.9209959363
 20
-11.16
 30
0.0
 11
87.9209959363
 21
-13.16
 31
0.0
  0
LINE
  5
11B
330
1F
100
AcDbEntity
  8
DOWN_FEATURES
  6
HIDDEN2
 62
     2
100
AcDbLine
 10
84.3662734074
 20
-11.76
 30
0.0
 11
82.0009959363
 21
-11.76
 31
0.0
  0
LINE
  5
11C
330
1F
100
AcDbEntity
  8
DOWN_FEATURES
  6
CONTINUOUS
 62
     2
100
AcDbLine
 10
84.3662734074
 20
-11.76
 30
0.0
 11
87.9209959363
 21
-11.76
 31
0.0
  0
LINE
  5
11D
330
1F
100
AcDbEntity
  8
DOWN_FEATURES
  6
CONTINUOUS
 62
     2
100
AcDbLine
 10
87.9209959363
 20
-13.16
 30
0.0
 11
84.3662734074
 21
-13.16
 31
0.0
  0
LINE
  5
11E
330
1F
100
AcDbEntity
  8
DOWN_FEATURES
  6
CONTINUOUS
 62
     2
100
AcDbLine
 10
84.3662734074
 20
-11.16
 30
0.0
 11
87.9209959363
 21
-11.16
 31
0.0
  0
LINE
  5
11F
330
1F
100
AcDbEntity
  8
DOWN_FEATURES
  6
CONTINUOUS
 62
     2
100
AcDbLine
 10
82.0009959363
 20
-11.16
 30
0.0
 11
84.3662734074
 21
-11.16
 31
0.0
  0
LINE
  5
120
330
1F
100
AcDbEntity
  8
DOWN_FEATURES
  6
CONTINUOUS
 62
     2
100
AcDbLine
 10
78.4462734074
 20
-13.16
 30
0.0
 11
76.0809959363
 21
-13.16
 31
0.0
  0
LINE
  5
121
330
1F
100
AcDbEntity
  8
DOWN_FEATURES
  6
HIDDEN2
 62
     2
100
AcDbLine
 10
78.4462734074
 20
-11.76
 30
0.0
 11
76.0809959363
 21
-11.76
 31
0.0
  0
LINE
  5
122
330
1F
100
AcDbEntity
  8
DOWN_FEATURES
  6
CONTINUOUS
 62
     2
100
AcDbLine
 10
78.4462734074
 20
-11.16
 30
0.0
 11
82.0009959363
 21
-11.16
 31
0.0
  0
LINE
  5
123
330
1F
100
AcDbEntity
  8
DOWN_FEATURES
  6
CONTINUOUS
 62
     2
100
AcDbLine
 10
78.4462734074
 20
-13.16
 30
0.0
 11
78.4462734074
 21
-11.16
 31
0.0
  0
LINE
  5
124
330
1F
100
AcDbEntity
  8
DOWN_FEATURES
  6
CONTINUOUS
 62
     2
100
AcDbLine
 10
82.0009959363
 20
-13.16
 30
0.0
 11
78.4462734074
 21
-13.16
 31
0.0
  0
LINE
  5
125
330
1F
100
AcDbEntity
  8
DOWN_FEATURES
  6
CONTINUOUS
 62
     2
100
AcDbLine
 10
78.4462734074
 20
-11.76
 30
0.0
 11
82.0009959363
 21
-11.76
 31
0.0
  0
LINE
  5
126
330
1F
100
AcDbEntity
  8
DOWN_FEATURES
  6
CONTINUOUS
 62
     2
100
AcDbLine
 10
82.0009959363
 20
-11.16
 30
0.0
 11
82.0009959363
 21
-13.16
 31
0.0
  0
LINE
  5
127
330
1F
100
AcDbEntity
  8
DOWN_FEATURES
  6
CONTINUOUS
 62
     2
100
AcDbLine
 10
76.0809959363
 20
-11.16
 30
0.0
 11
78.4462734074
 21
-11.16
 31
0.0
  0
LINE
  5
128
330
1F
100
AcDbEntity
  8
DOWN_FEATURES
  6
CONTINUOUS
 62
     2
100
AcDbLine
 10
72.5262734074
 20
-13.16
 30
0.0
 11
70.1609959363
 21
-13.16
 31
0.0
  0
LINE
  5
129
330
1F
100
AcDbEntity
  8
DOWN_FEATURES
  6
HIDDEN2
 62
     2
100
AcDbLine
 10
72.5262734074
 20
-11.76
 30
0.0
 11
70.1609959363
 21
-11.76
 31
0.0
  0
LINE
  5
12A
330
1F
100
AcDbEntity
  8
DOWN_FEATURES
  6
CONTINUOUS
 62
     2
100
AcDbLine
 10
72.5262734074
 20
-11.16
 30
0.0
 11
76.0809959363
 21
-11.16
 31
0.0
  0
LINE
  5
12B
330
1F
100
AcDbEntity
  8
DOWN_FEATURES
  6
CONTINUOUS
 62
     2
100
AcDbLine
 10
72.5262734074
 20
-13.16
 30
0.0
 11
72.5262734074
 21
-11.16
 31
0.0
  0
LINE
  5
12C
330
1F
100
AcDbEntity
  8
DOWN_FEATURES
  6
CONTINUOUS
 62
     2
100
AcDbLine
 10
76.0809959363
 20
-13.16
 30
0.0
 11
72.5262734074
 21
-13.16
 31
0.0
  0
LINE
  5
12D
330
1F
100
AcDbEntity
  8
DOWN_FEATURES
  6
CONTINUOUS
 62
     2
100
AcDbLine
 10
72.5262734074
 20
-11.76
 30
0.0
 11
76.0809959363
 21
-11.76
 31
0.0
  0
LINE
  5
12E
330
1F
100
AcDbEntity
  8
DOWN_FEATURES
  6
CONTINUOUS
 62
     2
100
AcDbLine
 10
76.0809959363
 20
-11.16
 30
0.0
 11
76.0809959363
 21
-13.16
 31
0.0
  0
LINE
  5
12F
330
1F
100
AcDbEntity
  8
DOWN_FEATURES
  6
CONTINUOUS
 62
     2
100
AcDbLine
 10
70.1609959363
 20
-11.16
 30
0.0
 11
72.5262734074
 21
-11.16
 31
0.0
  0
LINE
  5
130
330
1F
100
AcDbEntity
  8
DOWN_FEATURES
  6
CONTINUOUS
 62
     2
100
AcDbLine
 10
66.6062734074
 20
-13.16
 30
0.0
 11
64.2409959363
 21
-13.16
 31
0.0
  0
LINE
  5
131
330
1F
100
AcDbEntity
  8
DOWN_FEATURES
  6
HIDDEN2
 62
     2
100
AcDbLine
 10
66.6062734074
 20
-11.76
 30
0.0
 11
64.2409959363
 21
-11.76
 31
0.0
  0
LINE
  5
132
330
1F
100
AcDbEntity
  8
DOWN_FEATURES
  6
CONTINUOUS
 62
     2
100
AcDbLine
 10
66.6062734074
 20
-11.16
 30
0.0
 11
70.1609959363
 21
-11.16
 31
0.0
  0
LINE
  5
133
330
1F
100
AcDbEntity
  8
DOWN_FEATURES
  6
CONTINUOUS
 62
     2
100
AcDbLine
 10
66.6062734074
 20
-13.16
 30
0.0
 11
66.6062734074
 21
-11.16
 31
0.0
  0
LINE
  5
134
330
1F
100
AcDbEntity
  8
DOWN_FEATURES
  6
CONTINUOUS
 62
     2
100
AcDbLine
 10
70.1609959363
 20
-13.16
 30
0.0
 11
66.6062734074
 21
-13.16
 31
0.0
  0
LINE
  5
135
330
1F
100
AcDbEntity
  8
DOWN_FEATURES
  6
CONTINUOUS
 62
     2
100
AcDbLine
 10
66.6062734074
 20
-11.76
 30
0.0
 11
70.1609959363
 21
-11.76
 31
0.0
  0
LINE
  5
136
330
1F
100
AcDbEntity
  8
DOWN_FEATURES
  6
CONTINUOUS
 62
     2
100
AcDbLine
 10
70.1609959363
 20
-11.16
 30
0.0
 11
70.1609959363
 21
-13.16
 31
0.0
  0
LINE
  5
137
330
1F
100
AcDbEntity
  8
DOWN_FEATURES
  6
CONTINUOUS
 62
     2
100
AcDbLine
 10
64.2409959363
 20
-11.16
 30
0.0
 11
66.6062734074
 21
-11.16
 31
0.0
  0
LINE
  5
138
330
1F
100
AcDbEntity
  8
DOWN_FEATURES
  6
CONTINUOUS
 62
     2
100
AcDbLine
 10
60.6862734074
 20
-13.16
 30
0.0
 11
58.3209959363
 21
-13.16
 31
0.0
  0
LINE
  5
139
330
1F
100
AcDbEntity
  8
DOWN_FEATURES
  6
HIDDEN2
 62
     2
100
AcDbLine
 10
60.6862734074
 20
-11.76
 30
0.0
 11
58.3209959363
 21
-11.76
 31
0.0
  0
LINE
  5
13A
330
1F
100
AcDbEntity
  8
DOWN_FEATURES
  6
CONTINUOUS
 62
     2
100
AcDbLine
 10
60.6862734074
 20
-11.16
 30
0.0
 11
64.2409959363
 21
-11.16
 31
0.0
  0
LINE
  5
13B
330
1F
100
AcDbEntity
  8
DOWN_FEATURES
  6
CONTINUOUS
 62
     2
100
AcDbLine
 10
60.6862734074
 20
-13.16
 30
0.0
 11
60.6862734074
 21
-11.16
 31
0.0
  0
LINE
  5
13C
330
1F
100
AcDbEntity
  8
DOWN_FEATURES
  6
CONTINUOUS
 62
     2
100
AcDbLine
 10
64.2409959363
 20
-13.16
 30
0.0
 11
60.6862734074
 21
-13.16
 31
0.0
  0
LINE
  5
13D
330
1F
100
AcDbEntity
  8
DOWN_FEATURES
  6
CONTINUOUS
 62
     2
100
AcDbLine
 10
60.6862734074
 20
-11.76
 30
0.0
 11
64.2409959363
 21
-11.76
 31
0.0
  0
LINE
  5
13E
330
1F
100
AcDbEntity
  8
DOWN_FEATURES
  6
CONTINUOUS
 62
     2
100
AcDbLine
 10
64.2409959363
 20
-11.16
 30
0.0
 11
64.2409959363
 21
-13.16
 31
0.0
  0
LINE
  5
13F
330
1F
100
AcDbEntity
  8
DOWN_FEATURES
  6
CONTINUOUS
 62
     2
100
AcDbLine
 10
58.3209959363
 20
-11.16
 30
0.0
 11
60.6862734074
 21
-11.16
 31
0.0
  0
LINE
  5
140
330
1F
100
AcDbEntity
  8
DOWN_FEATURES
  6
CONTINUOUS
 62
     2
100
AcDbLine
 10
54.7662734074
 20
-13.16
 30
0.0
 11
52.4009959363
 21
-13.16
 31
0.0
  0
LINE
  5
141
330
1F
100
AcDbEntity
  8
DOWN_FEATURES
  6
HIDDEN2
 62
     2
100
AcDbLine
 10
54.7662734074
 20
-11.76
 30
0.0
 11
52.4009959363
 21
-11.76
 31
0.0
  0
LINE
  5
142
330
1F
100
AcDbEntity
  8
DOWN_FEATURES
  6
CONTINUOUS
 62
     2
100
AcDbLine
 10
54.7662734074
 20
-11.16
 30
0.0
 11
58.3209959363
 21
-11.16
 31
0.0
  0
LINE
  5
143
330
1F
100
AcDbEntity
  8
DOWN_FEATURES
  6
CONTINUOUS
 62
     2
100
AcDbLine
 10
54.7662734074
 20
-13.16
 30
0.0
 11
54.7662734074
 21
-11.16
 31
0.0
  0
LINE
  5
144
330
1F
100
AcDbEntity
  8
DOWN_FEATURES
  6
CONTINUOUS
 62
     2
100
AcDbLine
 10
58.3209959363
 20
-13.16
 30
0.0
 11
54.7662734074
 21
-13.16
 31
0.0
  0
LINE
  5
145
330
1F
100
AcDbEntity
  8
DOWN_FEATURES
  6
CONTINUOUS
 62
     2
100
AcDbLine
 10
54.7662734074
 20
-11.76
 30
0.0
 11
58.3209959363
 21
-11.76
 31
0.0
  0
LINE
  5
146
330
1F
100
AcDbEntity
  8
DOWN_FEATURES
  6
CONTINUOUS
 62
     2
100
AcDbLine
 10
58.3209959363
 20
-11.16
 30
0.0
 11
58.3209959363
 21
-13.16
 31
0.0
  0
LINE
  5
147
330
1F
100
AcDbEntity
  8
DOWN_FEATURES
  6
CONTINUOUS
 62
     2
100
AcDbLine
 10
52.4009959363
 20
-11.16
 30
0.0
 11
54.7662734074
 21
-11.16
 31
0.0
  0
LINE
  5
148
330
1F
100
AcDbEntity
  8
DOWN_FEATURES
  6
CONTINUOUS
 62
     2
100
AcDbLine
 10
48.8462734074
 20
-13.16
 30
0.0
 11
46.4809959363
 21
-13.16
 31
0.0
  0
LINE
  5
149
330
1F
100
AcDbEntity
  8
DOWN_FEATURES
  6
HIDDEN2
 62
     2
100
AcDbLine
 10
48.8462734074
 20
-11.76
 30
0.0
 11
46.4809959363
 21
-11.76
 31
0.0
  0
LINE
  5
14A
330
1F
100
AcDbEntity
  8
DOWN_FEATURES
  6
CONTINUOUS
 62
     2
100
AcDbLine
 10
48.8462734074
 20
-11.16
 30
0.0
 11
52.4009959363
 21
-11.16
 31
0.0
  0
LINE
  5
14B
330
1F
100
AcDbEntity
  8
DOWN_FEATURES
  6
CONTINUOUS
 62
     2
100
AcDbLine
 10
48.8462734074
 20
-13.16
 30
0.0
 11
48.8462734074
 21
-11.16
 31
0.0
  0
LINE
  5
14C
330
1F
100
AcDbEntity
  8
DOWN_FEATURES
  6
CONTINUOUS
 62
     2
100
AcDbLine
 10
52.4009959363
 20
-13.16
 30
0.0
 11
48.8462734074
 21
-13.16
 31
0.0
  0
LINE
  5
14D
330
1F
100
AcDbEntity
  8
DOWN_FEATURES
  6
CONTINUOUS
 62
     2
100
AcDbLine
 10
48.8462734074
 20
-11.76
 30
0.0
 11
52.4009959363
 21
-11.76
 31
0.0
  0
LINE
  5
14E
330
1F
100
AcDbEntity
  8
DOWN_FEATURES
  6
CONTINUOUS
 62
     2
100
AcDbLine
 10
52.4009959363
 20
-11.16
 30
0.0
 11
52.4009959363
 21
-13.16
 31
0.0
  0
LINE
  5
14F
330
1F
100
AcDbEntity
  8
DOWN_FEATURES
  6
CONTINUOUS
 62
     2
100
AcDbLine
 10
46.4809959363
 20
-11.16
 30
0.0
 11
48.8462734074
 21
-11.16
 31
0.0
  0
LINE
  5
150
330
1F
100
AcDbEntity
  8
DOWN_FEATURES
  6
CONTINUOUS
 62
     2
100
AcDbLine
 10
42.9262734074
 20
-13.16
 30
0.0
 11
40.5609959363
 21
-13.16
 31
0.0
  0
LINE
  5
151
330
1F
100
AcDbEntity
  8
DOWN_FEATURES
  6
HIDDEN2
 62
     2
100
AcDbLine
 10
42.9262734074
 20
-11.76
 30
0.0
 11
40.5609959363
 21
-11.76
 31
0.0
  0
LINE
  5
152
330
1F
100
AcDbEntity
  8
DOWN_FEATURES
  6
CONTINUOUS
 62
     2
100
AcDbLine
 10
42.9262734074
 20
-11.16
 30
0.0
 11
46.4809959363
 21
-11.16
 31
0.0
  0
LINE
  5
153
330
1F
100
AcDbEntity
  8
DOWN_FEATURES
  6
CONTINUOUS
 62
     2
100
AcDbLine
 10
42.9262734074
 20
-13.16
 30
0.0
 11
42.9262734074
 21
-11.16
 31
0.0
  0
LINE
  5
154
330
1F
100
AcDbEntity
  8
DOWN_FEATURES
  6
CONTINUOUS
 62
     2
100
AcDbLine
 10
46.4809959363
 20
-13.16
 30
0.0
 11
42.9262734074
 21
-13.16
 31
0.0
  0
LINE
  5
155
330
1F
100
AcDbEntity
  8
DOWN_FEATURES
  6
CONTINUOUS
 62
     2
100
AcDbLine
 10
42.9262734074
 20
-11.76
 30
0.0
 11
46.4809959363
 21
-11.76
 31
0.0
  0
LINE
  5
156
330
1F
100
AcDbEntity
  8
DOWN_FEATURES
  6
CONTINUOUS
 62
     2
100
AcDbLine
 10
46.4809959363
 20
-11.16
 30
0.0
 11
46.4809959363
 21
-13.16
 31
0.0
  0
LINE
  5
157
330
1F
100
AcDbEntity
  8
DOWN_FEATURES
  6
CONTINUOUS
 62
     2
100
AcDbLine
 10
40.5609959363
 20
-11.16
 30
0.0
 11
42.9262734074
 21
-11.16
 31
0.0
  0
LINE
  5
158
330
1F
100
AcDbEntity
  8
DOWN_FEATURES
  6
CONTINUOUS
 62
     2
100
AcDbLine
 10
37.0062734074
 20
-13.16
 30
0.0
 11
34.6409959363
 21
-13.16
 31
0.0
  0
LINE
  5
159
330
1F
100
AcDbEntity
  8
DOWN_FEATURES
  6
HIDDEN2
 62
     2
100
AcDbLine
 10
37.0062734074
 20
-11.76
 30
0.0
 11
34.6409959363
 21
-11.76
 31
0.0
  0
LINE
  5
15A
330
1F
100
AcDbEntity
  8
DOWN_FEATURES
  6
CONTINUOUS
 62
     2
100
AcDbLine
 10
37.0062734074
 20
-11.16
 30
0.0
 11
40.5609959363
 21
-11.16
 31
0.0
  0
LINE
  5
15B
330
1F
100
AcDbEntity
  8
DOWN_FEATURES
  6
CONTINUOUS
 62
     2
100
AcDbLine
 10
37.0062734074
 20
-13.16
 30
0.0
 11
37.0062734074
 21
-11.16
 31
0.0
  0
LINE
  5
15C
330
1F
100
AcDbEntity
  8
DOWN_FEATURES
  6
CONTINUOUS
 62
     2
100
AcDbLine
 10
40.5609959363
 20
-13.16
 30
0.0
 11
37.0062734074
 21
-13.16
 31
0.0
  0
LINE
  5
15D
330
1F
100
AcDbEntity
  8
DOWN_FEATURES
  6
CONTINUOUS
 62
     2
100
AcDbLine
 10
37.0062734074
 20
-11.76
 30
0.0
 11
40.5609959363
 21
-11.76
 31
0.0
  0
LINE
  5
15E
330
1F
100
AcDbEntity
  8
DOWN_FEATURES
  6
CONTINUOUS
 62
     2
100
AcDbLine
 10
40.5609959363
 20
-11.16
 30
0.0
 11
40.5609959363
 21
-13.16
 31
0.0
  0
LINE
  5
15F
330
1F
100
AcDbEntity
  8
DOWN_FEATURES
  6
CONTINUOUS
 62
     2
100
AcDbLine
 10
34.6409959363
 20
-11.16
 30
0.0
 11
37.0062734074
 21
-11.16
 31
0.0
  0
LINE
  5
160
330
1F
100
AcDbEntity
  8
DOWN_FEATURES
  6
CONTINUOUS
 62
     2
100
AcDbLine
 10
31.0862734074
 20
-13.16
 30
0.0
 11
28.7209959363
 21
-13.16
 31
0.0
  0
LINE
  5
161
330
1F
100
AcDbEntity
  8
DOWN_FEATURES
  6
HIDDEN2
 62
     2
100
AcDbLine
 10
31.0862734074
 20
-11.76
 30
0.0
 11
28.7209959363
 21
-11.76
 31
0.0
  0
LINE
  5
162
330
1F
100
AcDbEntity
  8
DOWN_FEATURES
  6
CONTINUOUS
 62
     2
100
AcDbLine
 10
31.0862734074
 20
-11.16
 30
0.0
 11
34.6409959363
 21
-11.16
 31
0.0
  0
LINE
  5
163
330
1F
100
AcDbEntity
  8
DOWN_FEATURES
  6
CONTINUOUS
 62
     2
100
AcDbLine
 10
31.0862734074
 20
-13.16
 30
0.0
 11
31.0862734074
 21
-11.16
 31
0.0
  0
LINE
  5
164
330
1F
100
AcDbEntity
  8
DOWN_FEATURES
  6
CONTINUOUS
 62
     2
100
AcDbLine
 10
34.6409959363
 20
-13.16
 30
0.0
 11
31.0862734074
 21
-13.16
 31
0.0
  0
LINE
  5
165
330
1F
100
AcDbEntity
  8
DOWN_FEATURES
  6
CONTINUOUS
 62
     2
100
AcDbLine
 10
31.0862734074
 20
-11.76
 30
0.0
 11
34.6409959363
 21
-11.76
 31
0.0
  0
LINE
  5
166
330
1F
100
AcDbEntity
  8
DOWN_FEATURES
  6
CONTINUOUS
 62
     2
100
AcDbLine
 10
34.6409959363
 20
-11.16
 30
0.0
 11
34.6409959363
 21
-13.16
 31
0.0
  0
LINE
  5
167
330
1F
100
AcDbEntity
  8
DOWN_FEATURES
  6
CONTINUOUS
 62
     2
100
AcDbLine
 10
28.7209959363
 20
-11.16
 30
0.0
 11
31.0862734074
 21
-11.16
 31
0.0
  0
LINE
  5
168
330
1F
100
AcDbEntity
  8
DOWN_FEATURES
  6
CONTINUOUS
 62
     2
100
AcDbLine
 10
25.1662734074
 20
-13.16
 30
0.0
 11
22.8009959363
 21
-13.16
 31
0.0
  0
LINE
  5
169
330
1F
100
AcDbEntity
  8
DOWN_FEATURES
  6
HIDDEN2
 62
     2
100
AcDbLine
 10
25.1662734074
 20
-11.76
 30
0.0
 11
22.8009959363
 21
-11.76
 31
0.0
  0
LINE
  5
16A
330
1F
100
AcDbEntity
  8
DOWN_FEATURES
  6
CONTINUOUS
 62
     2
100
AcDbLine
 10
25.1662734074
 20
-11.16
 30
0.0
 11
28.7209959363
 21
-11.16
 31
0.0
  0
LINE
  5
16B
330
1F
100
AcDbEntity
  8
DOWN_FEATURES
  6
CONTINUOUS
 62
     2
100
AcDbLine
 10
25.1662734074
 20
-13.16
 30
0.0
 11
25.1662734074
 21
-11.16
 31
0.0
  0
LINE
  5
16C
330
1F
100
AcDbEntity
  8
DOWN_FEATURES
  6
CONTINUOUS
 62
     2
100
AcDbLine
 10
28.7209959363
 20
-13.16
 30
0.0
 11
25.1662734074
 21
-13.16
 31
0.0
  0
LINE
  5
16D
330
1F
100
AcDbEntity
  8
DOWN_FEATURES
  6
CONTINUOUS
 62
     2
100
AcDbLine
 10
25.1662734074
 20
-11.76
 30
0.0
 11
28.7209959363
 21
-11.76
 31
0.0
  0
LINE
  5
16E
330
1F
100
AcDbEntity
  8
DOWN_FEATURES
  6
CONTINUOUS
 62
     2
100
AcDbLine
 10
28.7209959363
 20
-11.16
 30
0.0
 11
28.7209959363
 21
-13.16
 31
0.0
  0
LINE
  5
16F
330
1F
100
AcDbEntity
  8
DOWN_FEATURES
  6
CONTINUOUS
 62
     2
100
AcDbLine
 10
22.8009959363
 20
-11.16
 30
0.0
 11
25.1662734074
 21
-11.16
 31
0.0
  0
LINE
  5
170
330
1F
100
AcDbEntity
  8
DOWN_FEATURES
  6
CONTINUOUS
 62
     2
100
AcDbLine
 10
19.2462734074
 20
-13.16
 30
0.0
 11
16.8809959363
 21
-13.16
 31
0.0
  0
LINE
  5
171
330
1F
100
AcDbEntity
  8
DOWN_FEATURES
  6
HIDDEN2
 62
     2
100
AcDbLine
 10
19.2462734074
 20
-11.76
 30
0.0
 11
16.8809959363
 21
-11.76
 31
0.0
  0
LINE
  5
172
330
1F
100
AcDbEntity
  8
DOWN_FEATURES
  6
CONTINUOUS
 62
     2
100
AcDbLine
 10
19.2462734074
 20
-11.16
 30
0.0
 11
22.8009959363
 21
-11.16
 31
0.0
  0
LINE
  5
173
330
1F
100
AcDbEntity
  8
DOWN_FEATURES
  6
CONTINUOUS
 62
     2
100
AcDbLine
 10
19.2462734074
 20
-13.16
 30
0.0
 11
19.2462734074
 21
-11.16
 31
0.0
  0
LINE
  5
174
330
1F
100
AcDbEntity
  8
DOWN_FEATURES
  6
CONTINUOUS
 62
     2
100
AcDbLine
 10
22.8009959363
 20
-13.16
 30
0.0
 11
19.2462734074
 21
-13.16
 31
0.0
  0
LINE
  5
175
330
1F
100
AcDbEntity
  8
DOWN_FEATURES
  6
CONTINUOUS
 62
     2
100
AcDbLine
 10
19.2462734074
 20
-11.76
 30
0.0
 11
22.8009959363
 21
-11.76
 31
0.0
  0
LINE
  5
176
330
1F
100
AcDbEntity
  8
DOWN_FEATURES
  6
CONTINUOUS
 62
     2
100
AcDbLine
 10
22.8009959363
 20
-11.16
 30
0.0
 11
22.8009959363
 21
-13.16
 31
0.0
  0
LINE
  5
177
330
1F
100
AcDbEntity
  8
DOWN_FEATURES
  6
CONTINUOUS
 62
     2
100
AcDbLine
 10
16.8809959363
 20
-11.16
 30
0.0
 11
19.2462734074
 21
-11.16
 31
0.0
  0
LINE
  5
178
330
1F
100
AcDbEntity
  8
DOWN_FEATURES
  6
CONTINUOUS
 62
     2
100
AcDbLine
 10
13.3262734074
 20
-13.16
 30
0.0
 11
10.9609959363
 21
-13.16
 31
0.0
  0
LINE
  5
179
330
1F
100
AcDbEntity
  8
DOWN_FEATURES
  6
HIDDEN2
 62
     2
100
AcDbLine
 10
13.3262734074
 20
-11.76
 30
0.0
 11
10.9609959363
 21
-11.76
 31
0.0
  0
LINE
  5
17A
330
1F
100
AcDbEntity
  8
DOWN_FEATURES
  6
CONTINUOUS
 62
     2
100
AcDbLine
 10
13.3262734074
 20
-11.16
 30
0.0
 11
16.8809959363
 21
-11.16
 31
0.0
  0
LINE
  5
17B
330
1F
100
AcDbEntity
  8
DOWN_FEATURES
  6
CONTINUOUS
 62
     2
100
AcDbLine
 10
13.3262734074
 20
-13.16
 30
0.0
 11
13.3262734074
 21
-11.16
 31
0.0
  0
LINE
  5
17C
330
1F
100
AcDbEntity
  8
DOWN_FEATURES
  6
CONTINUOUS
 62
     2
100
AcDbLine
 10
16.8809959363
 20
-13.16
 30
0.0
 11
13.3262734074
 21
-13.16
 31
0.0
  0
LINE
  5
17D
330
1F
100
AcDbEntity
  8
DOWN_FEATURES
  6
CONTINUOUS
 62
     2
100
AcDbLine
 10
13.3262734074
 20
-11.76
 30
0.0
 11
16.8809959363
 21
-11.76
 31
0.0
  0
LINE
  5
17E
330
1F
100
AcDbEntity
  8
DOWN_FEATURES
  6
CONTINUOUS
 62
     2
100
AcDbLine
 10
16.8809959363
 20
-11.16
 30
0.0
 11
16.8809959363
 21
-13.16
 31
0.0
  0
LINE
  5
17F
330
1F
100
AcDbEntity
  8
DOWN_FEATURES
  6
CONTINUOUS
 62
     2
100
AcDbLine
 10
10.9609959363
 20
-11.16
 30
0.0
 11
13.3262734074
 21
-11.16
 31
0.0
  0
LINE
  5
180
330
1F
100
AcDbEntity
  8
DOWN_FEATURES
  6
CONTINUOUS
 62
     2
100
AcDbLine
 10
7.4062734074
 20
-13.16
 30
0.0
 11
-0.9172008717
 21
-13.16
 31
0.0
  0
LINE
  5
181
330
1F
100
AcDbEntity
  8
DOWN_FEATURES
  6
HIDDEN2
 62
     2
100
AcDbLine
 10
7.4062734074
 20
-11.76
 30
0.0
 11
-1.5172008717
 21
-11.76
 31
0.0
  0
LINE
  5
182
330
1F
100
AcDbEntity
  8
DOWN_FEATURES
  6
CONTINUOUS
 62
     2
100
AcDbLine
 10
7.4062734074
 20
-11.16
 30
0.0
 11
10.9609959363
 21
-11.16
 31
0.0
  0
LINE
  5
183
330
1F
100
AcDbEntity
  8
DOWN_FEATURES
  6
CONTINUOUS
 62
     2
100
AcDbLine
 10
7.4062734074
 20
-13.16
 30
0.0
 11
7.4062734074
 21
-11.16
 31
0.0
  0
LINE
  5
184
330
1F
100
AcDbEntity
  8
DOWN_FEATURES
  6
CONTINUOUS
 62
     2
100
AcDbLine
 10
10.9609959363
 20
-13.16
 30
0.0
 11
7.4062734074
 21
-13.16
 31
0.0
  0
LINE
  5
185
330
1F
100
AcDbEntity
  8
DOWN_FEATURES
  6
CONTINUOUS
 62
     2
100
AcDbLine
 10
7.4062734074
 20
-11.76
 30
0.0
 11
10.9609959363
 21
-11.76
 31
0.0
  0
LINE
  5
186
330
1F
100
AcDbEntity
  8
DOWN_FEATURES
  6
CONTINUOUS
 62
     2
100
AcDbLine
 10
10.9609959363
 20
-11.16
 30
0.0
 11
10.9609959363
 21
-13.16
 31
0.0
  0
ARC
  5
187
330
1F
100
AcDbEntity
  8
DOWN_FEATURES
  6
CONTINUOUS
 62
     2
100
AcDbCircle
 10
5.756779507
 20
-19.8570055178
 30
0.0
 40
2.600000000000022
100
AcDbArc
 50
98.2978824493
 51
263.5613115078
  0
LINE
  5
188
330
1F
100
AcDbEntity
  8
DOWN_FEATURES
  6
CONTINUOUS
 62
     2
100
AcDbLine
 10
5.3815484696
 20
-17.2842245966
 30
0.0
 11
91.7714996546
 21
-18.1459093326
 31
0.0
  0
ARC
  5
189
330
1F
100
AcDbEntity
  8
DOWN_FEATURES
  6
CONTINUOUS
 62
     2
100
AcDbCircle
 10
91.9330632311
 20
-20.7408847102
 30
0.0
 40
2.600000000000013
100
AcDbArc
 50
269.403380629
 51
93.5626456967
  0
LINE
  5
18A
330
1F
100
AcDbEntity
  8
DOWN_FEATURES
  6
CONTINUOUS
 62
     2
100
AcDbLine
 10
91.9059899922
 20
-23.3407437525
 30
0.0
 11
5.4652156626
 21
-22.4406058206
 31
0.0
  0
ARC
  5
18B
330
1F
100
AcDbEntity
  8
DOWN_FEATURES
  6
CONTINUOUS
 62
     2
100
AcDbCircle
 10
5.756779507
 20
46.5170055178
 30
0.0
 40
2.600000000000001
100
AcDbArc
 50
96.4386884922
 51
261.7021175507
  0
LINE
  5
18C
330
1F
100
AcDbEntity
  8
DOWN_FEATURES
  6
CONTINUOUS
 62
     2
100
AcDbLine
 10
5.4652156626
 20
49.1006058206
 30
0.0
 11
91.9059899922
 21
50.0007437525
 31
0.0
  0
ARC
  5
18D
330
1F
100
AcDbEntity
  8
DOWN_FEATURES
  6
CONTINUOUS
 62
     2
100
AcDbCircle
 10
91.9330632311
 20
47.4008847102
 30
0.0
 40
2.600000000000013
100
AcDbArc
 50
266.4373543033
 51
90.596619371
  0
LINE
  5
18E
330
1F
100
AcDbEntity
  8
DOWN_FEATURES
  6
CONTINUOUS
 62
     2
100
AcDbLine
 10
91.7714996546
 20
44.8059093326
 30
0.0
 11
5.3815484696
 21
43.9442245966
 31
0.0
  0
LINE
  5
18F
330
1F
100
AcDbEntity
  8
UP_FEATURES
  6
CONTINUOUS
 62
     3
100
AcDbLine
 10
101.9827991283
 20
28.162574257
 30
0.0
 11
101.9827991283
 21
-1.5025742565
 31
0.0
  0
ENDSEC
  0
SECTION
  2
OBJECTS
  0
DICTIONARY
  5
C
330
0
100
AcDbDictionary
  3
ACAD_GROUP
350
D
  3
ACAD_LAYOUT
350
1A
  3
ACAD_MATERIAL
350
43
  3
ACAD_MLEADERSTYLE
350
5B
  3
ACAD_MLINESTYLE
350
17
  3
ACAD_PLOTSETTINGS
350
19
  3
ACAD_SCALELIST
350
47
  3
ACAD_VISUALSTYLE
350
2A
  3
ACDBHEADERROUNDTRIPXREC
350
190
  3
ACDBVARIABLEDICTIONARY
350
1B1
  3
DWGPROPS
350
1BC
  0
DICTIONARY
  5
1BD
330
8
100
AcDbDictionary
280
     1
  3
ACAD_XREC_ROUNDTRIP
360
1BE
  0
DICTIONARY
  5
D
102
{ACAD_REACTORS
330
C
102
}
330
C
100
AcDbDictionary
  0
DICTIONARY
  5
1A
102
{ACAD_REACTORS
330
C
102
}
330
C
100
AcDbDictionary
  0
DICTIONARY
  5
43
102
{ACAD_REACTORS
330
C
102
}
330
C
100
AcDbDictionary
  3
BYBLOCK
350
45
  3
BYLAYER
350
44
  3
GLOBAL
350
46
  0
DICTIONARY
  5
5B
102
{ACAD_REACTORS
330
C
102
}
330
C
100
AcDbDictionary
  3
STANDARD
350
5C
  0
DICTIONARY
  5
17
102
{ACAD_REACTORS
330
C
102
}
330
C
100
AcDbDictionary
  3
STANDARD
350
18
  0
DICTIONARY
  5
19
102
{ACAD_REACTORS
330
C
102
}
330
C
100
AcDbDictionary
  0
DICTIONARY
  5
47
102
{ACAD_REACTORS
330
C
102
}
330
C
100
AcDbDictionary
  3
A0
350
48
  3
A1
350
49
  3
A2
350
4A
  3
A3
350
4B
  3
A4
350
4C
  3
A5
350
4D
  3
A6
350
4E
  3
A7
350
4F
  3
A8
350
50
  3
A9
350
51
  3
B0
350
52
  3
B1
350
53
  3
B2
350
54
  3
B3
350
55
  3
B4
350
56
  3
B5
350
57
  3
B6
350
58
  0
DICTIONARY
  5
2A
102
{ACAD_REACTORS
330
C
102
}
330
C
100
AcDbDictionary
  3
2DWIREFRAME
350
2F
  3
BASIC
350
32
  3
BRIGHTEN
350
36
  3
COLORCHANGE
350
3A
  3
CONCEPTUAL
350
34
  3
DIM
350
35
  3
EDGECOLOROFF
350
3D
  3
FACEPATTERN
350
39
  3
FLAT
350
2B
  3
FLATWITHEDGES
350
2C
  3
GOURAUD
350
2D
  3
GOURAUDWITHEDGES
350
2E
  3
HIDDEN
350
31
  3
JITTEROFF
350
3B
  3
LINEPATTERN
350
38
  3
OVERHANGOFF
350
3C
  3
REALISTIC
350
33
  3
SHADED
350
42
  3
SHADED_WITH_EDGES
350
41
  3
SHADES_OF_GRAY
350
3E
  3
SKETCHY
350
3F
  3
THICKEN
350
37
  3
WIREFRAME
350
30
  3
X-RAY
350
40
  0
DICTIONARY
  5
190
102
{ACAD_REACTORS
330
C
102
}
330
C
100
AcDbDictionary
  3
CEPSNID
350
19A
  3
CEPSNTYPE
350
199
  3
DIMSTYLEDATA
350
1B0
  3
FINGERPRINTGUID
350
19B
  3
HYPERLINKBASE
350
193
  3
INSUNITS
350
198
  3
LAYOUTDICT
350
195
  3
LWETCUNION
350
197
  3
PLOTSETDICT
350
196
  3
PSVPSCALE
350
19D
  3
PUCSBASE
350
1A0
  3
PUCSORGBACK
350
1A6
  3
PUCSORGBOTTOM
350
1A2
  3
PUCSORGFRONT
350
1A5
  3
PUCSORGLEFT
350
1A3
  3
PUCSORGRIGHT
350
1A4
  3
PUCSORGTOP
350
1A1
  3
PUCSORTHOREF
350
19E
  3
PUCSORTHOVIEW
350
19F
  3
STYLESHEET
350
194
  3
TSTACKALIGN
350
191
  3
TSTACKSIZE
350
192
  3
UCSBASE
350
1A9
  3
UCSORGBACK
350
1AF
  3
UCSORGBOTTOM
350
1AB
  3
UCSORGFRONT
350
1AE
  3
UCSORGLEFT
350
1AC
  3
UCSORGRIGHT
350
1AD
  3
UCSORGTOP
350
1AA
  3
UCSORTHOREF
350
1A7
  3
UCSORTHOVIEW
350
1A8
  3
VERSIONGUID
350
19C
  0
DICTIONARY
  5
1B1
102
{ACAD_REACTORS
330
C
102
}
330
C
100
AcDbDictionary
  3
CANNOSCALE
350
1BF
  3
CENTEREXE
350
1B8
  3
CENTERLTYPEFILE
350
1B9
  3
CMLEADERSTYLE
350
1B3
  3
CTABLESTYLE
350
1B2
  3
DIMASSOC
350
1BA
  3
HIDETEXT
350
1BB
  3
MSLTSCALE
350
1C0
  3
PSOLHEIGHT
350
1B5
  3
PSOLWIDTH
350
1B4
  0
XRECORD
  5
1BC
102
{ACAD_REACTORS
330
C
102
}
330
C
100
AcDbXrecord
  1
DWGPROPS COOKIE
  2

  3

  4

  6

  7

  8
rsre3
  9

300
=
301
=
302
=
303
=
304
=
305
=
306
=
307
=
308
=
309
=
 40
0.0
 41
2460957.797084109
 42
2460957.797102581
  1

 90
        0
  0
XRECORD
  5
1BE
102
{ACAD_REACTORS
330
1BD
102
}
330
1BD
100
AcDbXrecord
102
VTR_0.000_0.000_1.000_1.000_VISUALSTYLE
340
2F
102
VTR_0.000_0.000_1.000_1.000_GRIDDISPLAY
 70
     3
102
VTR_0.000_0.000_1.000_1.000_GRIDMAJOR
 70
     5
102
VTR_0.000_0.000_1.000_1.000_DEFAULTLIGHTING
280
     1
102
VTR_0.000_0.000_1.000_1.000_DEFAULTLIGHTINGTYPE
 70
     1
102
VTR_0.000_0.000_1.000_1.000_BRIGHTNESS
141
0.0
102
VTR_0.000_0.000_1.000_1.000_CONTRAST
142
0.0
  0
MATERIAL
  5
45
102
{ACAD_REACTORS
330
43
102
}
102
{ACAD_XDICTIONARY
360
1C3
102
}
330
43
100
AcDbMaterial
  1
BYBLOCK
  0
MATERIAL
  5
44
102
{ACAD_REACTORS
330
43
102
}
102
{ACAD_XDICTIONARY
360
1C1
102
}
330
43
100
AcDbMaterial
  1
BYLAYER
  0
MATERIAL
  5
46
102
{ACAD_REACTORS
330
43
102
}
102
{ACAD_XDICTIONARY
360
1C5
102
}
330
43
100
AcDbMaterial
  1
GLOBAL
  0
ACAD_PROXY_OBJECT
  5
5C
102
{ACAD_REACTORS
330
5B
102
}
330
5B
100
AcDbProxyObject
 90
      499
 91
      505
 93
      610
310
40901902A4063FBFFFFFE0000000000000020400000000000020404214DD185B99185C990000000000000104090141901A00000000000004100000000000000041025764000000000000039000
340
14
340
0
340
11
340
0
 94
        0
1001
ACAD_MLEADERVER
1070
     2
  0
MLINESTYLE
  5
18
102
{ACAD_REACTORS
330
17
102
}
330
17
100
AcDbMlineStyle
  2
Standard
 70
     0
  3

 62
   256
 51
90.0
 52
90.0
 71
     2
 49
0.5
 62
   256
  6
BYLAYER
 49
-0.5
 62
   256
  6
BYLAYER
  0
ACAD_PROXY_OBJECT
  5
48
102
{ACAD_REACTORS
330
47
102
}
330
47
100
AcDbProxyObject
 90
      499
 91
      503
 93
       41
310
903313A31580
  0
ACAD_PROXY_OBJECT
  5
49
102
{ACAD_REACTORS
330
47
102
}
330
47
100
AcDbProxyObject
 90
      499
 91
      503
 93
      105
310
903313A324000000000000004000
  0
ACAD_PROXY_OBJECT
  5
4A
102
{ACAD_REACTORS
330
47
102
}
330
47
100
AcDbProxyObject
 90
      499
 91
      503
 93
      105
310
903313A344000000000000104000
  0
ACAD_PROXY_OBJECT
  5
4B
102
{ACAD_REACTORS
330
47
102
}
330
47
100
AcDbProxyObject
 90
      499
 91
      503
 93
      105
310
903313A354000000000000144000
  0
ACAD_PROXY_OBJECT
  5
4C
102
{ACAD_REACTORS
330
47
102
}
330
47
100
AcDbProxyObject
 90
      499
 91
      503
 93
      105
310
903313A384000000000000204000
  0
ACAD_PROXY_OBJECT
  5
4D
102
{ACAD_REACTORS
330
47
102
}
330
47
100
AcDbProxyObject
 90
      499
 91
      503
 93
      113
310
904313A31304000000000000244000
  0
ACAD_PROXY_OBJECT
  5
4E
102
{ACAD_REACTORS
330
47
102
}
330
47
100
AcDbProxyObject
 90
      499
 91
      503
 93
      113
310
904313A31364000000000000304000
  0
ACAD_PROXY_OBJECT
  5
4F
102
{ACAD_REACTORS
330
47
102
}
330
47
100
AcDbProxyObject
 90
      499
 91
      503
 93
      113
310
904313A32304000000000000344000
  0
ACAD_PROXY_OBJECT
  5
50
102
{ACAD_REACTORS
330
47
102
}
330
47
100
AcDbProxyObject
 90
      499
 91
      503
 93
      113
310
904313A333040000000000003E4000
  0
ACAD_PROXY_OBJECT
  5
51
102
{ACAD_REACTORS
330
47
102
}
330
47
100
AcDbProxyObject
 90
      499
 91
      503
 93
      113
310
904313A34304000000000000444000
  0
ACAD_PROXY_OBJECT
  5
52
102
{ACAD_REACTORS
330
47
102
}
330
47
100
AcDbProxyObject
 90
      499
 91
      503
 93
      113
310
904313A35304000000000000494000
  0
ACAD_PROXY_OBJECT
  5
53
102
{ACAD_REACTORS
330
47
102
}
330
47
100
AcDbProxyObject
 90
      499
 91
      503
 93
      121
310
905313A3130304000000000000594000
  0
ACAD_PROXY_OBJECT
  5
54
102
{ACAD_REACTORS
330
47
102
}
330
47
100
AcDbProxyObject
 90
      499
 91
      503
 93
      105
310
903323A310000000000000010100
  0
ACAD_PROXY_OBJECT
  5
55
102
{ACAD_REACTORS
330
47
102
}
330
47
100
AcDbProxyObject
 90
      499
 91
      503
 93
      105
310
903343A310000000000000410100
  0
ACAD_PROXY_OBJECT
  5
56
102
{ACAD_REACTORS
330
47
102
}
330
47
100
AcDbProxyObject
 90
      499
 91
      503
 93
      105
310
903383A310000000000000810100
  0
ACAD_PROXY_OBJECT
  5
57
102
{ACAD_REACTORS
330
47
102
}
330
47
100
AcDbProxyObject
 90
      499
 91
      503
 93
      113
310
90431303A310000000000000910100
  0
ACAD_PROXY_OBJECT
  5
58
102
{ACAD_REACTORS
330
47
102
}
330
47
100
AcDbProxyObject
 90
      499
 91
      503
 93
      121
310
9053130303A310000000000001650100
  0
ACAD_PROXY_OBJECT
  5
2F
102
{ACAD_REACTORS
330
2A
102
}
330
2A
100
AcDbProxyObject
 90
      499
 91
      501
 93
      436
310
42CC9915DA5C99599C985B595049028333333333333E33F0000000000000F90107901411070040501600405405064090741402480A0340
1001
ACAD
1000
AcDbSavedByObjectVersion
1070
     0
  0
ACAD_PROXY_OBJECT
  5
32
102
{ACAD_REACTORS
330
2A
102
}
330
2A
100
AcDbProxyObject
 90
      499
 91
      501
 93
      388
310
4150985CDA58D07406404333333333333E33F0000000000000F90107A41107004050150841D405064090741402480A0350
1001
ACAD
1000
AcDbSavedByObjectVersion
1070
     0
  0
ACAD_PROXY_OBJECT
  5
36
102
{ACAD_REACTORS
330
2A
102
}
330
2A
100
AcDbProxyObject
 90
      499
 91
      501
 93
      428
310
42109C9A59DA1D195B90C409028333333333333E33F0000000000000F9010790141107004050150841D405064090741402480A029950
1001
ACAD
1000
AcDbSavedByObjectVersion
1070
     0
  0
ACAD_PROXY_OBJECT
  5
3A
102
{ACAD_REACTORS
330
2A
102
}
330
2A
100
AcDbProxyObject
 90
      499
 91
      501
 93
      452
310
42D0DBDB1BDC90DA185B99D95104090240C333333333333E33F0000000000000F90108901411070040501508421405064090741402480A0350
1001
ACAD
1000
AcDbSavedByObjectVersion
1070
     0
  0
ACAD_PROXY_OBJECT
  5
34
102
{ACAD_REACTORS
330
2A
102
}
330
2A
100
AcDbProxyObject
 90
      499
 91
      501
 93
      500
310
4290DBDB98D95C1D1D585B10940D028333333333333E33F0000000000000F90107902409070040501000000000018199010841D405064090740C02480A0340
1001
ACAD
1000
AcDbSavedByObjectVersion
1070
     0
  0
ACAD_PROXY_OBJECT
  5
35
102
{ACAD_REACTORS
330
2A
102
}
330
2A
100
AcDbProxyObject
 90
      499
 91
      501
 93
      412
310
40D11A5B50B409028333333333333E33F0000000000000F9010790141107004050150841D405064090741402480A02677FFFFFD0
1001
ACAD
1000
AcDbSavedByObjectVersion
1070
     0
  0
ACAD_PROXY_OBJECT
  5
3D
102
{ACAD_REACTORS
330
2A
102
}
330
2A
100
AcDbProxyObject
 90
      499
 91
      501
 93
      452
310
43115919D950DBDB1BDC93D999916409028333333333333E33F0000000000000F9010790141107004050150841D405064090741402480A0350
1001
ACAD
1000
AcDbSavedByObjectVersion
1070
     0
  0
ACAD_PROXY_OBJECT
  5
39
102
{ACAD_REACTORS
330
2A
102
}
330
2A
100
AcDbProxyObject
 90
      499
 91
      501
 93
      444
310
42D19858D95C185D1D195C9B90F409028333333333333E33F0000000000000F9010790141107004050150841D405064090741402480A0350
1001
ACAD
1000
AcDbSavedByObjectVersion
1070
     0
  0
ACAD_PROXY_OBJECT
  5
2B
102
{ACAD_REACTORS
330
2A
102
}
330
2A
100
AcDbProxyObject
 90
      499
 91
      501
 93
      380
310
41119B185D240901404333333333333E33F0000000000000F9010740A907004050150841D405064090741402480A1B50
1001
ACAD
1000
AcDbSavedByObjectVersion
1070
     0
  0
ACAD_PROXY_OBJECT
  5
2C
102
{ACAD_REACTORS
330
2A
102
}
330
2A
100
AcDbProxyObject
 90
      499
 91
      501
 93
      468
310
43519B185D15DA5D1A115919D95CD0140901404333333333333E33F0000000000000F90107409019070040501600405405064090741402480A1B50
1001
ACAD
1000
AcDbSavedByObjectVersion
1070
     0
  0
ACAD_PROXY_OBJECT
  5
2D
102
{ACAD_REACTORS
330
2A
102
}
330
2A
100
AcDbProxyObject
 90
      499
 91
      501
 93
      404
310
41D1DBDD5C985D5910240902404333333333333E33F0000000000000F9010740A9070040501641D405064090741402480A1B50
1001
ACAD
1000
AcDbSavedByObjectVersion
1070
     0
  0
ACAD_PROXY_OBJECT
  5
2E
102
{ACAD_REACTORS
330
2A
102
}
330
2A
100
AcDbProxyObject
 90
      499
 91
      501
 93
      492
310
4411DBDD5C985D5915DA5D1A115919D95CD0340902404333333333333E33F0000000000000F90107409019070040501600405405064090741402480A1B50
1001
ACAD
1000
AcDbSavedByObjectVersion
1070
     0
  0
ACAD_PROXY_OBJECT
  5
31
102
{ACAD_REACTORS
330
2A
102
}
330
2A
100
AcDbProxyObject
 90
      499
 91
      501
 93
      476
310
41921A5919195B90640502408333333333333E33F0000000000000F901079024090700405020000000000001110200405405064090740C02480A0340
1001
ACAD
1000
AcDbSavedByObjectVersion
1070
     0
  0
ACAD_PROXY_OBJECT
  5
3B
102
{ACAD_REACTORS
330
2A
102
}
330
2A
100
AcDbProxyObject
 90
      499
 91
      501
 93
      428
310
42529A5D1D195C93D999914409028333333333333E33F0000000000000F9010790141107004050150A41D405064090741402480A0350
1001
ACAD
1000
AcDbSavedByObjectVersion
1070
     0
  0
ACAD_PROXY_OBJECT
  5
38
102
{ACAD_REACTORS
330
2A
102
}
330
2A
100
AcDbProxyObject
 90
      499
 91
      501
 93
      444
310
42D31A5B995C185D1D195C9B90E409028333333333333E33F0000000000000F9010790141107004050750841D405064090741402483A0350
1001
ACAD
1000
AcDbSavedByObjectVersion
1070
     0
  0
ACAD_PROXY_OBJECT
  5
3C
102
{ACAD_REACTORS
330
2A
102
}
330
2A
100
AcDbProxyObject
 90
      499
 91
      501
 93
      444
310
42D3DD995C9A185B99D3D999915409028333333333333E33F0000000000000F9010790141107004050150941D405064090741402480A0350
1001
ACAD
1000
AcDbSavedByObjectVersion
1070
     0
  0
ACAD_PROXY_OBJECT
  5
33
102
{ACAD_REACTORS
330
2A
102
}
330
2A
100
AcDbProxyObject
 90
      499
 91
      501
 93
      428
310
425499585B1A5CDD1A58D08409038333333333333E33F0000000000000F9010740A907004050150800405405064090740C02480A1B40
1001
ACAD
1000
AcDbSavedByObjectVersion
1070
     0
  0
ACAD_PROXY_OBJECT
  5
42
102
{ACAD_REACTORS
330
2A
102
}
330
2A
100
AcDbProxyObject
 90
      499
 91
      501
 93
      420
310
4194DA1859195911B40902404333333333333E33F0000000000000F9010740A41107004050150800405405064090840C02480A0B40
1001
ACAD
1000
AcDbSavedByObjectVersion
1070
     0
  0
ACAD_PROXY_OBJECT
  5
41
102
{ACAD_REACTORS
330
2A
102
}
330
2A
100
AcDbProxyObject
 90
      499
 91
      501
 93
      516
310
4454DA18591959081DDA5D1A08195919D95CD1A40902404333333333333E33F0000000000000F901074090142907004050250800405405064090740C02480A0B40
1001
ACAD
1000
AcDbSavedByObjectVersion
1070
     0
  0
ACAD_PROXY_OBJECT
  5
3E
102
{ACAD_REACTORS
330
2A
102
}
330
2A
100
AcDbProxyObject
 90
      499
 91
      501
 93
      532
310
4394DA1859195CC81BD98811DC985E5174090240C333333333333E33F0000000000000F901079024090741D01000000000000111010841D405064090740C02480A0340
1001
ACAD
1000
AcDbSavedByObjectVersion
1070
     0
  0
ACAD_PROXY_OBJECT
  5
3F
102
{ACAD_REACTORS
330
2A
102
}
330
2A
100
AcDbProxyObject
 90
      499
 91
      501
 93
      476
310
41D4DAD95D18DA1E51840502408333333333333E33F0000000000000F901079024090741D01000000000000111010B41D405064090741802480A0340
1001
ACAD
1000
AcDbSavedByObjectVersion
1070
     0
  0
ACAD_PROXY_OBJECT
  5
37
102
{ACAD_REACTORS
330
2A
102
}
330
2A
100
AcDbProxyObject
 90
      499
 91
      501
 93
      412
310
41D51A1A58DAD95B90D409028333333333333E33F0000000000000F9010790141107004050150C41D405064090741402480A0350
1001
ACAD
1000
AcDbSavedByObjectVersion
1070
     0
  0
ACAD_PROXY_OBJECT
  5
30
102
{ACAD_REACTORS
330
2A
102
}
330
2A
100
AcDbProxyObject
 90
      499
 91
      501
 93
      420
310
4255DA5C99599C985B595059028333333333333E33F0000000000000F90107901411070040501600405405064090740C02480A0340
1001
ACAD
1000
AcDbSavedByObjectVersion
1070
     0
  0
ACAD_PROXY_OBJECT
  5
40
102
{ACAD_REACTORS
330
2A
102
}
330
2A
100
AcDbProxyObject
 90
      499
 91
      501
 93
      404
310
41560B54985E51940902404000000000000E03F0000000000000F9010740501907004050150841D405064090740C02480A1B40
1001
ACAD
1000
AcDbSavedByObjectVersion
1070
     0
  0
XRECORD
  5
19A
102
{ACAD_REACTORS
330
190
102
}
330
190
100
AcDbXrecord
340
0
  0
XRECORD
  5
199
102
{ACAD_REACTORS
330
190
102
}
330
190
100
AcDbXrecord
 90
        0
  0
XRECORD
  5
1B0
102
{ACAD_REACTORS
330
190
102
}
330
190
100
AcDbXrecord
1000
DSTYLE
1002
{
1070
   340
340
11
1002
}
  0
XRECORD
  5
19B
102
{ACAD_REACTORS
330
190
102
}
330
190
100
AcDbXrecord
  1
{55f73cf1-6c50-4efb-afb1-f98c79e47088}
  0
XRECORD
  5
193
102
{ACAD_REACTORS
330
190
102
}
330
190
100
AcDbXrecord
  1

  0
XRECORD
  5
198
102
{ACAD_REACTORS
330
190
102
}
330
190
100
AcDbXrecord
 90
        4
  0
XRECORD
  5
195
102
{ACAD_REACTORS
330
190
102
}
330
190
100
AcDbXrecord
340
1A
  0
XRECORD
  5
197
102
{ACAD_REACTORS
330
190
102
}
330
190
100
AcDbXrecord
 90
    10781
  0
XRECORD
  5
196
102
{ACAD_REACTORS
330
190
102
}
330
190
100
AcDbXrecord
340
19
  0
XRECORD
  5
19D
102
{ACAD_REACTORS
330
190
102
}
330
190
100
AcDbXrecord
 40
0.0
  0
XRECORD
  5
1A0
102
{ACAD_REACTORS
330
190
102
}
330
190
100
AcDbXrecord
340
0
  0
XRECORD
  5
1A6
102
{ACAD_REACTORS
330
190
102
}
330
190
100
AcDbXrecord
 10
0.0
 20
0.0
 30
0.0
  0
XRECORD
  5
1A2
102
{ACAD_REACTORS
330
190
102
}
330
190
100
AcDbXrecord
 10
0.0
 20
0.0
 30
0.0
  0
XRECORD
  5
1A5
102
{ACAD_REACTORS
330
190
102
}
330
190
100
AcDbXrecord
 10
0.0
 20
0.0
 30
0.0
  0
XRECORD
  5
1A3
102
{ACAD_REACTORS
330
190
102
}
330
190
100
AcDbXrecord
 10
0.0
 20
0.0
 30
0.0
  0
XRECORD
  5
1A4
102
{ACAD_REACTORS
330
190
102
}
330
190
100
AcDbXrecord
 10
0.0
 20
0.0
 30
0.0
  0
XRECORD
  5
1A1
102
{ACAD_REACTORS
330
190
102
}
330
190
100
AcDbXrecord
 10
0.0
 20
0.0
 30
0.0
  0
XRECORD
  5
19E
102
{ACAD_REACTORS
330
190
102
}
330
190
100
AcDbXrecord
340
0
  0
XRECORD
  5
19F
102
{ACAD_REACTORS
330
190
102
}
330
190
100
AcDbXrecord
 70
     0
  0
XRECORD
  5
194
102
{ACAD_REACTORS
330
190
102
}
330
190
100
AcDbXrecord
  1

  0
XRECORD
  5
191
102
{ACAD_REACTORS
330
190
102
}
330
190
100
AcDbXrecord
 90
        1
  0
XRECORD
  5
192
102
{ACAD_REACTORS
330
190
102
}
330
190
100
AcDbXrecord
 90
       70
  0
XRECORD
  5
1A9
102
{ACAD_REACTORS
330
190
102
}
330
190
100
AcDbXrecord
340
0
  0
XRECORD
  5
1AF
102
{ACAD_REACTORS
330
190
102
}
330
190
100
AcDbXrecord
 10
0.0
 20
0.0
 30
0.0
  0
XRECORD
  5
1AB
102
{ACAD_REACTORS
330
190
102
}
330
190
100
AcDbXrecord
 10
0.0
 20
0.0
 30
0.0
  0
XRECORD
  5
1AE
102
{ACAD_REACTORS
330
190
102
}
330
190
100
AcDbXrecord
 10
0.0
 20
0.0
 30
0.0
  0
XRECORD
  5
1AC
102
{ACAD_REACTORS
330
190
102
}
330
190
100
AcDbXrecord
 10
0.0
 20
0.0
 30
0.0
  0
XRECORD
  5
1AD
102
{ACAD_REACTORS
330
190
102
}
330
190
100
AcDbXrecord
 10
0.0
 20
0.0
 30
0.0
  0
XRECORD
  5
1AA
102
{ACAD_REACTORS
330
190
102
}
330
190
100
AcDbXrecord
 10
0.0
 20
0.0
 30
0.0
  0
XRECORD
  5
1A7
102
{ACAD_REACTORS
330
190
102
}
330
190
100
AcDbXrecord
340
0
  0
XRECORD
  5
1A8
102
{ACAD_REACTORS
330
190
102
}
330
190
100
AcDbXrecord
 70
     0
  0
XRECORD
  5
19C
102
{ACAD_REACTORS
330
190
102
}
330
190
100
AcDbXrecord
  1
{FAEB1C32-E019-11D5-929B-00C0DF256EC4}
  0
DICTIONARYVAR
  5
1BF
102
{ACAD_REACTORS
330
1B1
102
}
330
1B1
100
DictionaryVariables
280
     0
  1
1:1
  0
DICTIONARYVAR
  5
1B8
102
{ACAD_REACTORS
330
1B1
102
}
330
1B1
100
DictionaryVariables
280
     0
  1
3.500000
  0
DICTIONARYVAR
  5
1B9
102
{ACAD_REACTORS
330
1B1
102
}
330
1B1
100
DictionaryVariables
280
     0
  1
acadiso.lin
  0
DICTIONARYVAR
  5
1B3
102
{ACAD_REACTORS
330
1B1
102
}
330
1B1
100
DictionaryVariables
280
     0
  1
Standard
  0
DICTIONARYVAR
  5
1B2
102
{ACAD_REACTORS
330
1B1
102
}
330
1B1
100
DictionaryVariables
280
     0
  1
Standard
  0
DICTIONARYVAR
  5
1BA
102
{ACAD_REACTORS
330
1B1
102
}
330
1B1
100
DictionaryVariables
280
     0
  1
2
  0
DICTIONARYVAR
  5
1BB
102
{ACAD_REACTORS
330
1B1
102
}
330
1B1
100
DictionaryVariables
280
     0
  1
1
  0
DICTIONARYVAR
  5
1C0
102
{ACAD_REACTORS
330
1B1
102
}
330
1B1
100
DictionaryVariables
280
     0
  1
1
  0
DICTIONARYVAR
  5
1B5
102
{ACAD_REACTORS
330
1B1
102
}
330
1B1
100
DictionaryVariables
280
     0
  1
80.000000
  0
DICTIONARYVAR
  5
1B4
102
{ACAD_REACTORS
330
1B1
102
}
330
1B1
100
DictionaryVariables
280
     0
  1
5.000000
  0
DICTIONARY
  5
1C3
330
45
100
AcDbDictionary
280
     1
  3
ACAD_XREC_ROUNDTRIP
360
1C4
  0
DICTIONARY
  5
1C1
330
44
100
AcDbDictionary
280
     1
  3
ACAD_XREC_ROUNDTRIP
360
1C2
  0
DICTIONARY
  5
1C5
330
46
100
AcDbDictionary
280
     1
  3
ACAD_XREC_ROUNDTRIP
360
1C6
  0
XRECORD
  5
1C4
102
{ACAD_REACTORS
330
1C3
102
}
330
1C3
100
AcDbXrecord
102
MATERIAL
148
0.0
149
0.0
149
0.0
 93
        0
 94
      127
282
     0
 72
     1
 77
     1
171
     1
175
     1
179
     1
273
     0
  0
XRECORD
  5
1C2
102
{ACAD_REACTORS
330
1C1
102
}
330
1C1
100
AcDbXrecord
102
MATERIAL
148
0.0
149
0.0
149
0.0
 93
        0
 94
      127
282
     0
 72
     1
 77
     1
171
     1
175
     1
179
     1
273
     0
  0
XRECORD
  5
1C6
102
{ACAD_REACTORS
330
1C5
102
}
330
1C5
100
AcDbXrecord
102
MATERIAL
148
0.0
149
0.0
149
0.0
 93
        0
 94
      127
282
     0
 72
     1
 77
     1
171
     1
175
     1
179
     1
273
     0
  0
ENDSEC
  0
EOF
